<svg width="170" height="10" viewBox="0 0 170 10" version="1.1" xmlns="http://www.w3.org/2000/svg" xmlns:xlink="http://www.w3.org/1999/xlink" xmlns:figma="http://www.figma.com/figma/ns">
<title>The Collegian Magazine</title>
<desc>Created using Figma</desc>
<g id="Canvas" transform="translate(-8 61)" figma:type="canvas">
<g id="The Collegian Magazine" style="mix-blend-mode:normal;" figma:type="text">
<use xlink:href="#path0_fill" transform="translate(8 -65)" style="mix-blend-mode:normal;"/>
</g>
</g>
<defs>
<path id="path0_fill" d="M 0.548439 7.00781C 0.571877 6.75391 0.583595 6.42578 0.583595 6.02344C 0.583595 5.55469 0.554298 5.04297 0.495705 4.48828C 1.15977 4.51172 2.28867 4.52344 3.88242 4.52344C 5.46445 4.52344 6.5875 4.51172 7.25156 4.48828C 7.19688 5.05859 7.16953 5.57031 7.16953 6.02344C 7.16953 6.42578 7.18125 6.75391 7.20469 7.00781L 6.9293 7.00781C 6.8668 6.38672 6.78672 5.92773 6.68906 5.63086C 6.59531 5.33008 6.42735 5.11133 6.18516 4.97461C 5.94688 4.83398 5.57969 4.76367 5.0836 4.76367L 4.4332 4.76367L 4.4332 11.5898C 4.4332 11.9219 4.46445 12.166 4.52695 12.3223C 4.58945 12.4746 4.70274 12.5801 4.8668 12.6387C 5.03086 12.6973 5.29063 12.7324 5.6461 12.7441L 5.6461 12.9844C 5.22422 12.9609 4.63633 12.9492 3.88242 12.9492C 3.08164 12.9492 2.48985 12.9609 2.10703 12.9844L 2.10703 12.7441C 2.4625 12.7324 2.72227 12.6973 2.88633 12.6387C 3.05039 12.5801 3.16367 12.4746 3.22617 12.3223C 3.28867 12.166 3.31992 11.9219 3.31992 11.5898L 3.31992 4.76367L 2.66953 4.76367C 2.17344 4.76367 1.8043 4.83398 1.56211 4.97461C 1.32383 5.11133 1.15586 5.33008 1.0582 5.63086C 0.964455 5.92773 0.88633 6.38672 0.82383 7.00781L 0.548439 7.00781ZM 16.7813 4.72852C 16.4922 4.74023 16.2813 4.77148 16.1484 4.82227C 16.0195 4.87305 15.9297 4.9668 15.8789 5.10352C 15.832 5.24023 15.8086 5.45898 15.8086 5.75977L 15.8086 11.7129C 15.8086 12.0137 15.832 12.2324 15.8789 12.3691C 15.9297 12.5059 16.0195 12.5996 16.1484 12.6504C 16.2813 12.7012 16.4922 12.7324 16.7813 12.7441L 16.7813 12.9844C 16.4492 12.9609 15.9375 12.9492 15.2461 12.9492C 14.6055 12.9492 14.0977 12.9609 13.7227 12.9844L 13.7227 12.7441C 14.0117 12.7324 14.2207 12.7012 14.3496 12.6504C 14.4824 12.5996 14.5723 12.5059 14.6191 12.3691C 14.6699 12.2324 14.6953 12.0137 14.6953 11.7129L 14.6953 8.83008L 10.793 8.83008L 10.793 11.7129C 10.793 12.0137 10.8164 12.2324 10.8633 12.3691C 10.9141 12.5059 11.0039 12.5996 11.1328 12.6504C 11.2656 12.7012 11.4766 12.7324 11.7656 12.7441L 11.7656 12.9844C 11.3984 12.9609 10.8906 12.9492 10.2422 12.9492C 9.55469 12.9492 9.04297 12.9609 8.70703 12.9844L 8.70703 12.7441C 8.9961 12.7324 9.20508 12.7012 9.33399 12.6504C 9.4668 12.5996 9.55664 12.5059 9.60352 12.3691C 9.6543 12.2324 9.67969 12.0137 9.67969 11.7129L 9.67969 5.75977C 9.67969 5.45898 9.6543 5.24023 9.60352 5.10352C 9.55664 4.9668 9.4668 4.87305 9.33399 4.82227C 9.20508 4.77148 8.9961 4.74023 8.70703 4.72852L 8.70703 4.48828C 9.03906 4.51172 9.55078 4.52344 10.2422 4.52344C 10.8906 4.52344 11.3984 4.51172 11.7656 4.48828L 11.7656 4.72852C 11.4766 4.74023 11.2656 4.77148 11.1328 4.82227C 11.0039 4.87305 10.9141 4.9668 10.8633 5.10352C 10.8164 5.24023 10.793 5.45898 10.793 5.75977L 10.793 8.58984L 14.6953 8.58984L 14.6953 5.75977C 14.6953 5.45898 14.6699 5.24023 14.6191 5.10352C 14.5723 4.9668 14.4824 4.87305 14.3496 4.82227C 14.2207 4.77148 14.0117 4.74023 13.7227 4.72852L 13.7227 4.48828C 14.0977 4.51172 14.6055 4.52344 15.2461 4.52344C 15.9336 4.52344 16.4453 4.51172 16.7813 4.48828L 16.7813 4.72852ZM 24.5707 10.582C 24.5473 10.7969 24.5355 11.0859 24.5355 11.4492C 24.5355 11.9023 24.5629 12.4141 24.6176 12.9844C 24.0746 12.9609 23.1586 12.9492 21.8695 12.9492C 20.3344 12.9492 19.1742 12.9609 18.3891 12.9844L 18.3891 12.7441C 18.6781 12.7324 18.8871 12.7012 19.016 12.6504C 19.1488 12.5996 19.2387 12.5059 19.2855 12.3691C 19.3363 12.2324 19.3617 12.0137 19.3617 11.7129L 19.3617 5.75977C 19.3617 5.45898 19.3363 5.24023 19.2855 5.10352C 19.2387 4.9668 19.1488 4.87305 19.016 4.82227C 18.8871 4.77148 18.6781 4.74023 18.3891 4.72852L 18.3891 4.48828C 19.1742 4.51172 20.3344 4.52344 21.8695 4.52344C 23.0453 4.52344 23.8813 4.51172 24.3773 4.48828C 24.3227 5.01172 24.2953 5.48438 24.2953 5.90625C 24.2953 6.21875 24.307 6.4668 24.3305 6.65039L 24.0551 6.65039C 23.9965 6.13086 23.9223 5.74414 23.8324 5.49023C 23.7465 5.23633 23.598 5.05273 23.3871 4.93945C 23.1801 4.82227 22.8656 4.76367 22.4438 4.76367L 21.4477 4.76367C 21.1586 4.76367 20.9477 4.78711 20.8148 4.83398C 20.6859 4.88086 20.5961 4.97266 20.5453 5.10938C 20.4984 5.24219 20.475 5.45898 20.475 5.75977L 20.475 8.58984L 21.2719 8.58984C 21.6742 8.58984 21.9418 8.4707 22.0746 8.23242C 22.2074 7.99023 22.2895 7.74414 22.3207 7.49414C 22.352 7.24414 22.3734 7.08203 22.3852 7.00781L 22.6605 7.00781C 22.6332 7.40234 22.6195 7.7793 22.6195 8.13867L 22.6254 8.71289C 22.6254 9.11914 22.6488 9.6875 22.6957 10.418L 22.4203 10.418C 22.4125 10.3633 22.3891 10.1699 22.35 9.83789C 22.3148 9.50586 22.2074 9.25586 22.0277 9.08789C 21.848 8.91602 21.5961 8.83008 21.2719 8.83008L 20.475 8.83008L 20.475 11.7129C 20.475 12.0137 20.4984 12.2324 20.5453 12.3691C 20.5961 12.502 20.6859 12.5918 20.8148 12.6387C 20.9477 12.6855 21.1586 12.709 21.4477 12.709L 22.3266 12.709C 22.8266 12.709 23.2055 12.6426 23.4633 12.5098C 23.725 12.377 23.9125 12.1641 24.0258 11.8711C 24.143 11.5781 24.2328 11.1484 24.2953 10.582L 24.5707 10.582ZM 36.5871 12.9844C 36.5676 12.7344 36.5344 12.5547 36.4875 12.4453C 36.4445 12.332 36.3801 12.2754 36.2941 12.2754C 36.2316 12.2754 36.1496 12.3086 36.048 12.375C 35.8098 12.543 35.5891 12.6816 35.3859 12.791C 35.1867 12.8965 34.9582 12.9824 34.7004 13.0488C 34.4426 13.1191 34.1516 13.1543 33.8273 13.1543C 33.0656 13.1543 32.3977 12.9824 31.8234 12.6387C 31.2531 12.2949 30.8098 11.7969 30.4934 11.1445C 30.1809 10.4883 30.0246 9.70898 30.0246 8.80664C 30.0246 7.92383 30.1867 7.14258 30.5109 6.46289C 30.8352 5.7832 31.2863 5.25586 31.8645 4.88086C 32.4426 4.50586 33.1008 4.31836 33.8391 4.31836C 34.3156 4.31836 34.7219 4.38672 35.0578 4.52344C 35.3977 4.66016 35.7277 4.85156 36.048 5.09766C 36.134 5.16797 36.2121 5.20312 36.2824 5.20312C 36.4465 5.20312 36.548 4.96484 36.5871 4.48828L 36.8625 4.48828C 36.8313 5.00781 36.8156 5.92773 36.8156 7.24805L 36.5402 7.24805C 36.4816 6.88867 36.427 6.60938 36.3762 6.41016C 36.3293 6.21094 36.2727 6.04297 36.2063 5.90625C 36.1398 5.76562 36.05 5.62109 35.9367 5.47266C 35.6945 5.16016 35.3879 4.92578 35.0168 4.76953C 34.6457 4.61328 34.2453 4.53516 33.8156 4.53516C 33.2961 4.53516 32.841 4.70703 32.4504 5.05078C 32.0598 5.39453 31.757 5.88477 31.5422 6.52148C 31.3273 7.1582 31.2199 7.9043 31.2199 8.75977C 31.2199 9.63086 31.3371 10.3789 31.5715 11.0039C 31.8059 11.6289 32.1281 12.1035 32.5383 12.4277C 32.9484 12.752 33.4133 12.9141 33.9328 12.9141C 34.3313 12.9141 34.7199 12.8379 35.0988 12.6855C 35.4777 12.5332 35.7727 12.3047 35.9836 12C 36.1477 11.7813 36.2648 11.5449 36.3352 11.291C 36.4055 11.0332 36.4738 10.6367 36.5402 10.1016L 36.8156 10.1016C 36.8156 11.4805 36.8313 12.4414 36.8625 12.9844L 36.5871 12.9844ZM 42.7008 4.31836C 43.4625 4.31836 44.1285 4.49023 44.6988 4.83398C 45.273 5.17773 45.7164 5.67773 46.0289 6.33398C 46.3453 6.98633 46.5035 7.76367 46.5035 8.66602C 46.5035 9.54883 46.3414 10.3301 46.0172 11.0098C 45.693 11.6895 45.2418 12.2168 44.6637 12.5918C 44.0855 12.9668 43.4273 13.1543 42.6891 13.1543C 41.9273 13.1543 41.2594 12.9824 40.6852 12.6387C 40.1148 12.2949 39.6715 11.7969 39.3551 11.1445C 39.0426 10.4883 38.8863 9.70898 38.8863 8.80664C 38.8863 7.92383 39.0484 7.14258 39.3727 6.46289C 39.6969 5.7832 40.148 5.25586 40.7262 4.88086C 41.3043 4.50586 41.9625 4.31836 42.7008 4.31836ZM 42.6539 4.53516C 42.1422 4.53516 41.691 4.71484 41.3004 5.07422C 40.9098 5.42969 40.609 5.92773 40.398 6.56836C 40.1871 7.20508 40.0816 7.93555 40.0816 8.75977C 40.0816 9.5918 40.1988 10.3242 40.4332 10.957C 40.6676 11.5898 40.9859 12.0781 41.3883 12.4219C 41.7945 12.7656 42.2438 12.9375 42.7359 12.9375C 43.2477 12.9375 43.6969 12.7598 44.0836 12.4043C 44.4742 12.0449 44.775 11.5469 44.9859 10.9102C 45.1969 10.2695 45.3023 9.53711 45.3023 8.71289C 45.3023 7.88086 45.1852 7.14844 44.9508 6.51562C 44.7164 5.88281 44.398 5.39453 43.9957 5.05078C 43.5934 4.70703 43.1461 4.53516 42.6539 4.53516ZM 51.2109 4.72852C 50.9219 4.74023 50.7109 4.77148 50.5781 4.82227C 50.4492 4.87305 50.3594 4.9668 50.3086 5.10352C 50.2617 5.24023 50.2383 5.45898 50.2383 5.75977L 50.2383 11.7129C 50.2383 12.0137 50.2617 12.2324 50.3086 12.3691C 50.3594 12.502 50.4492 12.5918 50.5781 12.6387C 50.7109 12.6855 50.9219 12.709 51.2109 12.709L 52.0898 12.709C 52.5898 12.709 52.9688 12.6387 53.2266 12.498C 53.4883 12.3574 53.6758 12.1328 53.7891 11.8242C 53.9062 11.5156 53.9961 11.0625 54.0586 10.4648L 54.334 10.4648C 54.3105 10.7148 54.2988 11.043 54.2988 11.4492C 54.2988 11.9023 54.3262 12.4141 54.3809 12.9844C 53.8379 12.9609 52.9219 12.9492 51.6328 12.9492C 50.0977 12.9492 48.9375 12.9609 48.1523 12.9844L 48.1523 12.7441C 48.4414 12.7324 48.6504 12.7012 48.7793 12.6504C 48.9121 12.5996 49.002 12.5059 49.0488 12.3691C 49.0996 12.2324 49.125 12.0137 49.125 11.7129L 49.125 5.75977C 49.125 5.45898 49.0996 5.24023 49.0488 5.10352C 49.002 4.9668 48.9121 4.87305 48.7793 4.82227C 48.6504 4.77148 48.4414 4.74023 48.1523 4.72852L 48.1523 4.48828C 48.4844 4.51172 48.9961 4.52344 49.6875 4.52344C 50.3359 4.52344 50.8437 4.51172 51.2109 4.48828L 51.2109 4.72852ZM 58.8656 4.72852C 58.5766 4.74023 58.3656 4.77148 58.2328 4.82227C 58.1039 4.87305 58.0141 4.9668 57.9633 5.10352C 57.9164 5.24023 57.893 5.45898 57.893 5.75977L 57.893 11.7129C 57.893 12.0137 57.9164 12.2324 57.9633 12.3691C 58.0141 12.502 58.1039 12.5918 58.2328 12.6387C 58.3656 12.6855 58.5766 12.709 58.8656 12.709L 59.7445 12.709C 60.2445 12.709 60.6234 12.6387 60.8813 12.498C 61.143 12.3574 61.3305 12.1328 61.4438 11.8242C 61.5609 11.5156 61.6508 11.0625 61.7133 10.4648L 61.9887 10.4648C 61.9652 10.7148 61.9535 11.043 61.9535 11.4492C 61.9535 11.9023 61.9809 12.4141 62.0355 12.9844C 61.4926 12.9609 60.5766 12.9492 59.2875 12.9492C 57.7523 12.9492 56.5922 12.9609 55.807 12.9844L 55.807 12.7441C 56.0961 12.7324 56.3051 12.7012 56.434 12.6504C 56.5668 12.5996 56.6566 12.5059 56.7035 12.3691C 56.7543 12.2324 56.7797 12.0137 56.7797 11.7129L 56.7797 5.75977C 56.7797 5.45898 56.7543 5.24023 56.7035 5.10352C 56.6566 4.9668 56.5668 4.87305 56.434 4.82227C 56.3051 4.77148 56.0961 4.74023 55.807 4.72852L 55.807 4.48828C 56.1391 4.51172 56.6508 4.52344 57.3422 4.52344C 57.9906 4.52344 58.4984 4.51172 58.8656 4.48828L 58.8656 4.72852ZM 69.6434 10.582C 69.6199 10.7969 69.6082 11.0859 69.6082 11.4492C 69.6082 11.9023 69.6355 12.4141 69.6902 12.9844C 69.1473 12.9609 68.2313 12.9492 66.9422 12.9492C 65.407 12.9492 64.2469 12.9609 63.4617 12.9844L 63.4617 12.7441C 63.7508 12.7324 63.9598 12.7012 64.0887 12.6504C 64.2215 12.5996 64.3113 12.5059 64.3582 12.3691C 64.409 12.2324 64.4344 12.0137 64.4344 11.7129L 64.4344 5.75977C 64.4344 5.45898 64.409 5.24023 64.3582 5.10352C 64.3113 4.9668 64.2215 4.87305 64.0887 4.82227C 63.9598 4.77148 63.7508 4.74023 63.4617 4.72852L 63.4617 4.48828C 64.2469 4.51172 65.407 4.52344 66.9422 4.52344C 68.118 4.52344 68.9539 4.51172 69.45 4.48828C 69.3953 5.01172 69.368 5.48438 69.368 5.90625C 69.368 6.21875 69.3797 6.4668 69.4031 6.65039L 69.1277 6.65039C 69.0691 6.13086 68.9949 5.74414 68.9051 5.49023C 68.8191 5.23633 68.6707 5.05273 68.4598 4.93945C 68.2527 4.82227 67.9383 4.76367 67.5164 4.76367L 66.5203 4.76367C 66.2313 4.76367 66.0203 4.78711 65.8875 4.83398C 65.7586 4.88086 65.6688 4.97266 65.618 5.10938C 65.5711 5.24219 65.5477 5.45898 65.5477 5.75977L 65.5477 8.58984L 66.3445 8.58984C 66.7469 8.58984 67.0145 8.4707 67.1473 8.23242C 67.2801 7.99023 67.3621 7.74414 67.3934 7.49414C 67.4246 7.24414 67.4461 7.08203 67.4578 7.00781L 67.7332 7.00781C 67.7059 7.40234 67.6922 7.7793 67.6922 8.13867L 67.698 8.71289C 67.698 9.11914 67.7215 9.6875 67.7684 10.418L 67.493 10.418C 67.4852 10.3633 67.4617 10.1699 67.4227 9.83789C 67.3875 9.50586 67.2801 9.25586 67.1004 9.08789C 66.9207 8.91602 66.6688 8.83008 66.3445 8.83008L 65.5477 8.83008L 65.5477 11.7129C 65.5477 12.0137 65.5711 12.2324 65.618 12.3691C 65.6688 12.502 65.7586 12.5918 65.8875 12.6387C 66.0203 12.6855 66.2313 12.709 66.5203 12.709L 67.3992 12.709C 67.8992 12.709 68.2781 12.6426 68.5359 12.5098C 68.7977 12.377 68.9852 12.1641 69.0984 11.8711C 69.2156 11.5781 69.3055 11.1484 69.368 10.582L 69.6434 10.582ZM 78.048 12.9844C 78.0402 12.8203 78.007 12.666 77.9484 12.5215C 77.8898 12.373 77.8137 12.2988 77.7199 12.2988C 77.6691 12.2988 77.6203 12.3125 77.5734 12.3398C 77.5266 12.3633 77.4445 12.418 77.3273 12.5039C 77.0461 12.7188 76.7551 12.8809 76.4543 12.9902C 76.1574 13.0996 75.8234 13.1543 75.4523 13.1543C 74.632 13.1543 73.927 12.9844 73.3371 12.6445C 72.7473 12.3047 72.2961 11.8145 71.9836 11.1738C 71.675 10.5332 71.5207 9.76953 71.5207 8.88281C 71.5207 7.96484 71.6848 7.16211 72.0129 6.47461C 72.3449 5.7832 72.8039 5.25195 73.3898 4.88086C 73.9758 4.50586 74.6398 4.31836 75.382 4.31836C 75.7063 4.31836 75.9934 4.35352 76.2434 4.42383C 76.4973 4.49023 76.716 4.57617 76.8996 4.68164C 77.0871 4.78711 77.302 4.92578 77.5441 5.09766C 77.6457 5.17969 77.7258 5.2207 77.7844 5.2207C 77.9367 5.2207 78.0363 4.97656 78.0832 4.48828L 78.3586 4.48828C 78.3273 5.00781 78.3117 5.92773 78.3117 7.24805L 78.0363 7.24805C 77.966 6.81836 77.8898 6.4668 77.8078 6.19336C 77.7258 5.91602 77.6008 5.67578 77.4328 5.47266C 77.1984 5.18359 76.8957 4.95508 76.5246 4.78711C 76.1535 4.61914 75.7648 4.53516 75.3586 4.53516C 74.8313 4.53516 74.3684 4.70703 73.9699 5.05078C 73.5715 5.39453 73.2629 5.88477 73.0441 6.52148C 72.8254 7.1543 72.716 7.89648 72.716 8.74805C 72.716 9.70898 72.8176 10.4961 73.0207 11.1094C 73.2277 11.7227 73.5402 12.1777 73.9582 12.4746C 74.3801 12.7676 74.9191 12.9141 75.5754 12.9141C 76.0559 12.9141 76.4719 12.7891 76.8234 12.5391C 76.968 12.4414 77.0617 12.3477 77.1047 12.2578C 77.1477 12.168 77.1691 12.043 77.1691 11.8828L 77.1691 10.7285C 77.1691 10.3965 77.1379 10.1543 77.0754 10.002C 77.0129 9.8457 76.8996 9.74023 76.7355 9.68555C 76.5715 9.62695 76.3117 9.58984 75.9563 9.57422L 75.9563 9.33398C 76.3508 9.36133 76.9152 9.375 77.6496 9.375C 78.2121 9.375 78.6281 9.36133 78.8977 9.33398L 78.8977 9.57422C 78.7102 9.58984 78.5754 9.62305 78.4934 9.67383C 78.4152 9.7207 78.3606 9.81055 78.3293 9.94336C 78.302 10.0762 78.2883 10.2969 78.2883 10.6055L 78.2883 12.9844L 78.048 12.9844ZM 83.4703 4.72852C 83.1813 4.74023 82.9703 4.77148 82.8375 4.82227C 82.7086 4.87305 82.6188 4.9668 82.568 5.10352C 82.5211 5.24023 82.4977 5.45898 82.4977 5.75977L 82.4977 11.7129C 82.4977 12.0137 82.5211 12.2324 82.568 12.3691C 82.6188 12.5059 82.7086 12.5996 82.8375 12.6504C 82.9703 12.7012 83.1813 12.7324 83.4703 12.7441L 83.4703 12.9844C 83.1031 12.9609 82.5953 12.9492 81.9469 12.9492C 81.2594 12.9492 80.7477 12.9609 80.4117 12.9844L 80.4117 12.7441C 80.7008 12.7324 80.9098 12.7012 81.0387 12.6504C 81.1715 12.5996 81.2613 12.5059 81.3082 12.3691C 81.359 12.2324 81.3844 12.0137 81.3844 11.7129L 81.3844 5.75977C 81.3844 5.45898 81.359 5.24023 81.3082 5.10352C 81.2613 4.9668 81.1715 4.87305 81.0387 4.82227C 80.9098 4.77148 80.7008 4.74023 80.4117 4.72852L 80.4117 4.48828C 80.7438 4.51172 81.2555 4.52344 81.9469 4.52344C 82.5953 4.52344 83.1031 4.51172 83.4703 4.48828L 83.4703 4.72852ZM 91.3828 11.9766C 91.5781 12.4727 91.8555 12.7285 92.2148 12.7441L 92.2148 12.9844C 91.8867 12.9609 91.457 12.9492 90.9258 12.9492C 90.2422 12.9492 89.7305 12.9609 89.3906 12.9844L 89.3906 12.7441C 89.6953 12.7324 89.9121 12.6953 90.041 12.6328C 90.1738 12.5703 90.2402 12.459 90.2402 12.2988C 90.2402 12.1621 90.1934 11.9746 90.0996 11.7363L 89.3613 9.76758L 86.4668 9.76758L 85.9746 11.0391C 85.8145 11.4453 85.7344 11.7734 85.7344 12.0234C 85.7344 12.2773 85.8184 12.459 85.9863 12.5684C 86.1582 12.6777 86.4219 12.7363 86.7773 12.7441L 86.7773 12.9844C 86.3203 12.9609 85.8594 12.9492 85.3945 12.9492C 85.0352 12.9492 84.7363 12.9609 84.498 12.9844L 84.498 12.7441C 84.8965 12.6543 85.2109 12.3066 85.4414 11.7012L 88.2656 4.42969L 88.459 4.42969L 91.3828 11.9766ZM 87.9316 5.94727L 86.5547 9.52734L 89.2734 9.52734L 87.9316 5.94727ZM 100.537 4.72852C 100.26 4.74023 100.053 4.78125 99.9164 4.85156C 99.7836 4.91797 99.6918 5.0293 99.641 5.18555C 99.5902 5.3418 99.5648 5.57422 99.5648 5.88281L 99.5648 13.043L 99.2895 13.043L 94.2504 5.25586L 94.2504 11.5898C 94.2504 11.8984 94.2777 12.1309 94.3324 12.2871C 94.3871 12.4434 94.4887 12.5566 94.6371 12.627C 94.7895 12.6934 95.0238 12.7324 95.3402 12.7441L 95.3402 12.9844C 95.0551 12.9609 94.6469 12.9492 94.1156 12.9492C 93.6391 12.9492 93.268 12.9609 93.0023 12.9844L 93.0023 12.7441C 93.2797 12.7324 93.4848 12.6934 93.6176 12.627C 93.7543 12.5566 93.848 12.4434 93.8988 12.2871C 93.9496 12.1309 93.975 11.8984 93.975 11.5898L 93.975 5.75977C 93.975 5.45898 93.9496 5.24023 93.8988 5.10352C 93.852 4.9668 93.7621 4.87305 93.6293 4.82227C 93.5004 4.77148 93.2914 4.74023 93.0023 4.72852L 93.0023 4.48828C 93.2641 4.51172 93.6352 4.52344 94.1156 4.52344C 94.475 4.52344 94.7875 4.51172 95.0531 4.48828L 99.2895 11.0156L 99.2895 5.88281C 99.2895 5.57422 99.2621 5.3418 99.2074 5.18555C 99.1566 5.0293 99.0551 4.91797 98.9027 4.85156C 98.7504 4.78125 98.516 4.74023 98.1996 4.72852L 98.1996 4.48828C 98.4848 4.51172 98.893 4.52344 99.4242 4.52344C 99.9008 4.52344 100.272 4.51172 100.537 4.48828L 100.537 4.72852ZM 115.109 4.72852C 114.82 4.74023 114.609 4.77148 114.476 4.82227C 114.347 4.87305 114.257 4.9668 114.206 5.10352C 114.159 5.24023 114.136 5.45898 114.136 5.75977L 114.136 11.7129C 114.136 12.0137 114.159 12.2324 114.206 12.3691C 114.257 12.5059 114.347 12.5996 114.476 12.6504C 114.609 12.7012 114.82 12.7324 115.109 12.7441L 115.109 12.9844C 114.734 12.9609 114.226 12.9492 113.585 12.9492C 112.898 12.9492 112.386 12.9609 112.05 12.9844L 112.05 12.7441C 112.339 12.7324 112.548 12.7012 112.677 12.6504C 112.806 12.5996 112.894 12.5059 112.941 12.3691C 112.991 12.2324 113.017 12.0137 113.017 11.7129L 113.017 5.29102L 110.128 13.043L 109.935 13.043L 106.911 5.25586L 106.911 11.5898C 106.911 11.8984 106.939 12.1309 106.993 12.2871C 107.048 12.4434 107.15 12.5566 107.298 12.627C 107.45 12.6934 107.685 12.7324 108.001 12.7441L 108.001 12.9844C 107.716 12.9609 107.308 12.9492 106.777 12.9492C 106.3 12.9492 105.929 12.9609 105.663 12.9844L 105.663 12.7441C 105.941 12.7324 106.146 12.6934 106.279 12.627C 106.415 12.5566 106.509 12.4434 106.56 12.2871C 106.611 12.1309 106.636 11.8984 106.636 11.5898L 106.636 5.75977C 106.636 5.45898 106.611 5.24023 106.56 5.10352C 106.513 4.9668 106.423 4.87305 106.29 4.82227C 106.161 4.77148 105.952 4.74023 105.663 4.72852L 105.663 4.48828C 105.925 4.51172 106.296 4.52344 106.777 4.52344C 107.198 4.52344 107.54 4.51172 107.802 4.48828L 110.439 11.4492L 113.017 4.52344L 113.585 4.52344C 114.226 4.52344 114.734 4.51172 115.109 4.48828L 115.109 4.72852ZM 123.021 11.9766C 123.216 12.4727 123.494 12.7285 123.853 12.7441L 123.853 12.9844C 123.525 12.9609 123.095 12.9492 122.564 12.9492C 121.88 12.9492 121.369 12.9609 121.029 12.9844L 121.029 12.7441C 121.334 12.7324 121.55 12.6953 121.679 12.6328C 121.812 12.5703 121.879 12.459 121.879 12.2988C 121.879 12.1621 121.832 11.9746 121.738 11.7363L 121 9.76758L 118.105 9.76758L 117.613 11.0391C 117.453 11.4453 117.373 11.7734 117.373 12.0234C 117.373 12.2773 117.457 12.459 117.625 12.5684C 117.796 12.6777 118.06 12.7363 118.416 12.7441L 118.416 12.9844C 117.959 12.9609 117.498 12.9492 117.033 12.9492C 116.673 12.9492 116.375 12.9609 116.136 12.9844L 116.136 12.7441C 116.535 12.6543 116.849 12.3066 117.08 11.7012L 119.904 4.42969L 120.097 4.42969L 123.021 11.9766ZM 119.57 5.94727L 118.193 9.52734L 120.912 9.52734L 119.57 5.94727ZM 131.432 12.9844C 131.424 12.8203 131.391 12.666 131.332 12.5215C 131.273 12.373 131.197 12.2988 131.104 12.2988C 131.053 12.2988 131.004 12.3125 130.957 12.3398C 130.91 12.3633 130.828 12.418 130.711 12.5039C 130.43 12.7188 130.139 12.8809 129.838 12.9902C 129.541 13.0996 129.207 13.1543 128.836 13.1543C 128.016 13.1543 127.311 12.9844 126.721 12.6445C 126.131 12.3047 125.68 11.8145 125.367 11.1738C 125.059 10.5332 124.904 9.76953 124.904 8.88281C 124.904 7.96484 125.068 7.16211 125.396 6.47461C 125.729 5.7832 126.188 5.25195 126.773 4.88086C 127.359 4.50586 128.023 4.31836 128.766 4.31836C 129.09 4.31836 129.377 4.35352 129.627 4.42383C 129.881 4.49023 130.1 4.57617 130.283 4.68164C 130.471 4.78711 130.686 4.92578 130.928 5.09766C 131.029 5.17969 131.109 5.2207 131.168 5.2207C 131.32 5.2207 131.42 4.97656 131.467 4.48828L 131.742 4.48828C 131.711 5.00781 131.695 5.92773 131.695 7.24805L 131.42 7.24805C 131.35 6.81836 131.273 6.4668 131.191 6.19336C 131.109 5.91602 130.984 5.67578 130.816 5.47266C 130.582 5.18359 130.279 4.95508 129.908 4.78711C 129.537 4.61914 129.148 4.53516 128.742 4.53516C 128.215 4.53516 127.752 4.70703 127.354 5.05078C 126.955 5.39453 126.646 5.88477 126.428 6.52148C 126.209 7.1543 126.1 7.89648 126.1 8.74805C 126.1 9.70898 126.201 10.4961 126.404 11.1094C 126.611 11.7227 126.924 12.1777 127.342 12.4746C 127.764 12.7676 128.303 12.9141 128.959 12.9141C 129.439 12.9141 129.855 12.7891 130.207 12.5391C 130.352 12.4414 130.445 12.3477 130.488 12.2578C 130.531 12.168 130.553 12.043 130.553 11.8828L 130.553 10.7285C 130.553 10.3965 130.521 10.1543 130.459 10.002C 130.396 9.8457 130.283 9.74023 130.119 9.68555C 129.955 9.62695 129.695 9.58984 129.34 9.57422L 129.34 9.33398C 129.734 9.36133 130.299 9.375 131.033 9.375C 131.596 9.375 132.012 9.36133 132.281 9.33398L 132.281 9.57422C 132.094 9.58984 131.959 9.62305 131.877 9.67383C 131.799 9.7207 131.744 9.81055 131.713 9.94336C 131.686 10.0762 131.672 10.2969 131.672 10.6055L 131.672 12.9844L 131.432 12.9844ZM 140.1 11.9766C 140.295 12.4727 140.573 12.7285 140.932 12.7441L 140.932 12.9844C 140.604 12.9609 140.174 12.9492 139.643 12.9492C 138.959 12.9492 138.448 12.9609 138.108 12.9844L 138.108 12.7441C 138.413 12.7324 138.629 12.6953 138.758 12.6328C 138.891 12.5703 138.957 12.459 138.957 12.2988C 138.957 12.1621 138.911 11.9746 138.817 11.7363L 138.079 9.76758L 135.184 9.76758L 134.692 11.0391C 134.532 11.4453 134.452 11.7734 134.452 12.0234C 134.452 12.2773 134.536 12.459 134.704 12.5684C 134.875 12.6777 135.139 12.7363 135.495 12.7441L 135.495 12.9844C 135.038 12.9609 134.577 12.9492 134.112 12.9492C 133.752 12.9492 133.454 12.9609 133.215 12.9844L 133.215 12.7441C 133.614 12.6543 133.928 12.3066 134.159 11.7012L 136.983 4.42969L 137.176 4.42969L 140.1 11.9766ZM 136.649 5.94727L 135.272 9.52734L 137.991 9.52734L 136.649 5.94727ZM 143.085 12.709L 145.616 12.709C 146.116 12.709 146.495 12.6387 146.753 12.498C 147.014 12.3574 147.202 12.1328 147.315 11.8242C 147.432 11.5156 147.522 11.0625 147.585 10.4648L 147.86 10.4648C 147.833 10.7578 147.819 11.0859 147.819 11.4492C 147.819 11.8633 147.848 12.375 147.907 12.9844C 147.313 12.9609 146.317 12.9492 144.919 12.9492C 143.552 12.9492 142.563 12.9609 141.954 12.9844L 141.954 12.7441L 146.958 4.76367L 144.438 4.76367C 143.938 4.76367 143.557 4.83398 143.296 4.97461C 143.038 5.11523 142.85 5.33984 142.733 5.64844C 142.62 5.95703 142.532 6.41016 142.47 7.00781L 142.194 7.00781C 142.218 6.75391 142.229 6.42578 142.229 6.02344C 142.229 5.57031 142.202 5.05859 142.147 4.48828C 142.737 4.51172 143.733 4.52344 145.136 4.52344C 146.495 4.52344 147.466 4.51172 148.048 4.48828L 148.048 4.72852L 143.085 12.709ZM 152.749 4.72852C 152.46 4.74023 152.249 4.77148 152.116 4.82227C 151.988 4.87305 151.898 4.9668 151.847 5.10352C 151.8 5.24023 151.777 5.45898 151.777 5.75977L 151.777 11.7129C 151.777 12.0137 151.8 12.2324 151.847 12.3691C 151.898 12.5059 151.988 12.5996 152.116 12.6504C 152.249 12.7012 152.46 12.7324 152.749 12.7441L 152.749 12.9844C 152.382 12.9609 151.874 12.9492 151.226 12.9492C 150.538 12.9492 150.027 12.9609 149.691 12.9844L 149.691 12.7441C 149.98 12.7324 150.189 12.7012 150.318 12.6504C 150.45 12.5996 150.54 12.5059 150.587 12.3691C 150.638 12.2324 150.663 12.0137 150.663 11.7129L 150.663 5.75977C 150.663 5.45898 150.638 5.24023 150.587 5.10352C 150.54 4.9668 150.45 4.87305 150.318 4.82227C 150.189 4.77148 149.98 4.74023 149.691 4.72852L 149.691 4.48828C 150.023 4.51172 150.534 4.52344 151.226 4.52344C 151.874 4.52344 152.382 4.51172 152.749 4.48828L 152.749 4.72852ZM 161.892 4.72852C 161.615 4.74023 161.408 4.78125 161.271 4.85156C 161.138 4.91797 161.046 5.0293 160.996 5.18555C 160.945 5.3418 160.92 5.57422 160.92 5.88281L 160.92 13.043L 160.644 13.043L 155.605 5.25586L 155.605 11.5898C 155.605 11.8984 155.632 12.1309 155.687 12.2871C 155.742 12.4434 155.843 12.5566 155.992 12.627C 156.144 12.6934 156.379 12.7324 156.695 12.7441L 156.695 12.9844C 156.41 12.9609 156.002 12.9492 155.47 12.9492C 154.994 12.9492 154.623 12.9609 154.357 12.9844L 154.357 12.7441C 154.634 12.7324 154.839 12.6934 154.972 12.627C 155.109 12.5566 155.203 12.4434 155.254 12.2871C 155.304 12.1309 155.33 11.8984 155.33 11.5898L 155.33 5.75977C 155.33 5.45898 155.304 5.24023 155.254 5.10352C 155.207 4.9668 155.117 4.87305 154.984 4.82227C 154.855 4.77148 154.646 4.74023 154.357 4.72852L 154.357 4.48828C 154.619 4.51172 154.99 4.52344 155.47 4.52344C 155.83 4.52344 156.142 4.51172 156.408 4.48828L 160.644 11.0156L 160.644 5.88281C 160.644 5.57422 160.617 5.3418 160.562 5.18555C 160.511 5.0293 160.41 4.91797 160.257 4.85156C 160.105 4.78125 159.871 4.74023 159.554 4.72852L 159.554 4.48828C 159.839 4.51172 160.248 4.52344 160.779 4.52344C 161.255 4.52344 161.627 4.51172 161.892 4.48828L 161.892 4.72852ZM 169.611 10.582C 169.588 10.7969 169.576 11.0859 169.576 11.4492C 169.576 11.9023 169.604 12.4141 169.658 12.9844C 169.115 12.9609 168.199 12.9492 166.91 12.9492C 165.375 12.9492 164.215 12.9609 163.43 12.9844L 163.43 12.7441C 163.719 12.7324 163.928 12.7012 164.057 12.6504C 164.189 12.5996 164.279 12.5059 164.326 12.3691C 164.377 12.2324 164.402 12.0137 164.402 11.7129L 164.402 5.75977C 164.402 5.45898 164.377 5.24023 164.326 5.10352C 164.279 4.9668 164.189 4.87305 164.057 4.82227C 163.928 4.77148 163.719 4.74023 163.43 4.72852L 163.43 4.48828C 164.215 4.51172 165.375 4.52344 166.91 4.52344C 168.086 4.52344 168.922 4.51172 169.418 4.48828C 169.363 5.01172 169.336 5.48438 169.336 5.90625C 169.336 6.21875 169.348 6.4668 169.371 6.65039L 169.096 6.65039C 169.037 6.13086 168.963 5.74414 168.873 5.49023C 168.787 5.23633 168.639 5.05273 168.428 4.93945C 168.221 4.82227 167.906 4.76367 167.484 4.76367L 166.488 4.76367C 166.199 4.76367 165.988 4.78711 165.855 4.83398C 165.727 4.88086 165.637 4.97266 165.586 5.10938C 165.539 5.24219 165.516 5.45898 165.516 5.75977L 165.516 8.58984L 166.312 8.58984C 166.715 8.58984 166.982 8.4707 167.115 8.23242C 167.248 7.99023 167.33 7.74414 167.361 7.49414C 167.393 7.24414 167.414 7.08203 167.426 7.00781L 167.701 7.00781C 167.674 7.40234 167.66 7.7793 167.66 8.13867L 167.666 8.71289C 167.666 9.11914 167.689 9.6875 167.736 10.418L 167.461 10.418C 167.453 10.3633 167.43 10.1699 167.391 9.83789C 167.355 9.50586 167.248 9.25586 167.068 9.08789C 166.889 8.91602 166.637 8.83008 166.312 8.83008L 165.516 8.83008L 165.516 11.7129C 165.516 12.0137 165.539 12.2324 165.586 12.3691C 165.637 12.502 165.727 12.5918 165.855 12.6387C 165.988 12.6855 166.199 12.709 166.488 12.709L 167.367 12.709C 167.867 12.709 168.246 12.6426 168.504 12.5098C 168.766 12.377 168.953 12.1641 169.066 11.8711C 169.184 11.5781 169.273 11.1484 169.336 10.582L 169.611 10.582Z"/>
</defs>
</svg>
