<svg width="170" height="10" viewBox="0 0 170 10" xmlns="http://www.w3.org/2000/svg" xmlns:xlink="http://www.w3.org/1999/xlink" xmlns:figma="http://www.figma.com/figma/ns"><title>The Collegian Magazine</title><use xlink:href="#a" transform="translate(0 -4)" style="mix-blend-mode:normal" figma:type="text"/><defs><path id="a" d="M.548 7.008c.024-.254.036-.582.036-.985 0-.468-.03-.98-.088-1.535.664.024 1.793.035 3.386.035 1.582 0 2.706-.01 3.37-.035-.055.57-.082 1.082-.082 1.535 0 .403.01.73.035.985H6.93c-.063-.62-.143-1.08-.24-1.377-.095-.3-.263-.52-.505-.65-.238-.14-.605-.21-1.1-.21h-.652v6.83c0 .34.03.58.094.74.062.16.176.26.34.32.164.06.424.1.78.11V13c-.423-.024-1.01-.036-1.765-.036-.8 0-1.392.01-1.775.033v-.24c.355-.013.615-.048.78-.106.163-.06.277-.16.34-.32.062-.15.093-.4.093-.73V4.77h-.65c-.497 0-.866.07-1.108.21-.238.137-.406.356-.504.657-.094.3-.172.76-.234 1.38H.548zm16.233-2.28c-.28.012-.5.043-.63.094-.13.05-.22.145-.27.282-.04.136-.07.355-.07.656v5.953c0 .3.03.52.07.656.05.13.14.23.27.28.14.05.35.08.64.09v.24c-.33-.03-.84-.04-1.53-.04-.64 0-1.15.01-1.52.03v-.24c.29-.01.5-.05.63-.1s.22-.15.27-.28c.05-.14.08-.36.08-.66V8.83h-3.9v2.883c0 .3.03.52.07.656.05.13.14.23.27.28.14.05.35.08.64.09v.24c-.37-.03-.87-.04-1.52-.04-.68 0-1.2.01-1.53.03v-.24c.29-.01.5-.05.63-.1s.22-.15.27-.28c.05-.14.08-.36.08-.66V5.76c0-.3-.02-.52-.07-.656-.04-.137-.13-.23-.27-.282-.13-.05-.33-.082-.62-.093v-.25c.33.02.85.03 1.54.03.65 0 1.16-.01 1.53-.04v.24c-.29.01-.5.04-.64.09-.13.05-.22.14-.27.28-.05.13-.07.35-.07.65v2.83h3.88v-2.8c0-.3-.02-.52-.07-.66s-.14-.23-.27-.28c-.13-.05-.34-.08-.63-.1v-.25c.38.02.88.03 1.52.03.69 0 1.2-.01 1.54-.04v.24zm7.79 5.854c-.02.215-.03.504-.03.867 0 .45.03.96.09 1.53-.54-.03-1.46-.04-2.75-.04-1.53 0-2.69.01-3.48.03v-.24c.29-.01.5-.05.63-.1.14-.05.23-.15.27-.28.05-.14.08-.36.08-.66V5.76c0-.3-.02-.52-.07-.656-.04-.137-.13-.23-.27-.282-.13-.05-.33-.082-.62-.093v-.25c.79.02 1.95.03 3.48.03 1.18 0 2.01-.01 2.51-.04-.05.52-.08.99-.08 1.41 0 .31.01.56.04.74h-.27c-.06-.52-.13-.91-.22-1.16-.08-.26-.23-.44-.44-.55-.2-.12-.52-.18-.94-.18h-1c-.29 0-.5.02-.63.07s-.22.14-.27.27c-.05.13-.07.35-.07.65v2.83h.8c.4 0 .67-.12.8-.36.13-.25.22-.49.25-.74l.06-.49h.28c-.02.39-.04.77-.04 1.13l.01.57c0 .4.03.97.07 1.7h-.27l-.07-.58c-.03-.33-.14-.58-.32-.75-.18-.17-.43-.26-.75-.26h-.81v2.89c0 .3.02.52.07.66.05.13.14.22.27.27.13.04.34.07.63.07h.88c.5 0 .88-.07 1.14-.2.26-.13.45-.35.56-.64.12-.29.21-.72.27-1.29h.28zm12.02 2.402c-.02-.25-.05-.43-.1-.54-.04-.112-.1-.17-.19-.17-.06 0-.14.035-.24.1-.24.17-.46.308-.66.417-.2.11-.42.2-.68.26-.25.07-.54.11-.87.11-.76 0-1.43-.17-2-.51-.57-.34-1.01-.84-1.33-1.49-.31-.65-.47-1.43-.47-2.34 0-.88.16-1.66.49-2.34.33-.68.78-1.2 1.36-1.58.58-.37 1.24-.56 1.97-.56.48 0 .89.07 1.22.21.34.14.67.33.99.58.09.07.17.11.24.11.17 0 .27-.24.31-.71h.28c-.03.52-.05 1.44-.05 2.76h-.27c-.05-.36-.11-.64-.16-.84-.05-.2-.1-.37-.17-.5-.07-.14-.16-.28-.27-.43-.24-.31-.55-.54-.92-.7-.37-.16-.77-.23-1.2-.23-.52 0-.97.18-1.37.52-.39.35-.69.84-.9 1.47-.21.64-.32 1.38-.32 2.24 0 .87.12 1.62.36 2.24.24.63.56 1.1.97 1.43.41.33.88.49 1.4.49.4 0 .79-.07 1.16-.23.38-.15.68-.38.89-.68.16-.22.28-.45.35-.71.07-.25.14-.65.21-1.19h.28c0 1.38.02 2.34.05 2.88h-.27zm6.11-8.666c.77 0 1.43.172 2 .516.58.344 1.02.844 1.33 1.5.32.652.48 1.43.48 2.332 0 .883-.16 1.664-.48 2.344-.32.68-.77 1.207-1.35 1.582s-1.23.562-1.97.562c-.76 0-1.43-.172-2-.515-.57-.35-1.01-.85-1.33-1.5-.31-.66-.47-1.44-.47-2.34 0-.89.16-1.67.49-2.35.33-.68.78-1.21 1.36-1.58.58-.38 1.24-.57 1.98-.57zm-.04.217c-.51 0-.96.18-1.35.54-.39.355-.69.853-.9 1.493-.21.637-.31 1.368-.31 2.192 0 .832.12 1.564.35 2.197.24.633.56 1.12.96 1.465.41.344.86.515 1.35.515.52 0 .96-.177 1.35-.533.39-.36.69-.857.9-1.494.21-.64.32-1.373.32-2.197 0-.832-.11-1.565-.35-2.197-.23-.633-.55-1.12-.95-1.465-.4-.34-.85-.51-1.34-.51zm8.56.194c-.28.01-.5.04-.63.09-.13.05-.22.14-.27.28-.04.13-.07.35-.07.65v5.95c0 .3.03.52.07.65.05.13.14.22.27.27.14.04.35.07.64.07h.88c.5 0 .88-.07 1.14-.21.26-.14.45-.37.56-.68.12-.31.21-.76.27-1.36h.28c-.02.25-.03.58-.03.98 0 .45.03.96.08 1.53-.54-.03-1.45-.04-2.74-.04-1.53 0-2.7.01-3.48.04v-.24c.29-.02.5-.05.63-.1s.22-.15.27-.28c.05-.14.08-.36.08-.66V5.76c0-.3-.03-.52-.08-.656-.05-.137-.14-.23-.27-.282-.13-.05-.34-.082-.63-.093v-.25c.33.02.84.03 1.54.03.65 0 1.16-.01 1.53-.04v.24zm7.66 0c-.29.01-.5.04-.63.09-.13.05-.22.14-.27.28-.04.13-.07.35-.07.65v5.95c0 .3.03.52.07.65.05.13.14.22.27.27.14.04.35.07.64.07h.88c.5 0 .88-.07 1.14-.21.26-.14.45-.37.57-.68.12-.31.21-.76.27-1.36H62c-.025.25-.037.58-.037.98 0 .45.03.96.084 1.53-.542-.03-1.458-.04-2.747-.04-1.536 0-2.696.01-3.48.04v-.24c.288-.02.497-.05.626-.1.13-.05.22-.15.27-.28.05-.14.074-.36.074-.66V5.76c0-.3-.025-.52-.076-.656-.046-.137-.136-.23-.27-.282-.13-.05-.337-.082-.626-.093v-.25c.333.02.845.03 1.536.03.65 0 1.155-.01 1.523-.04v.24zm10.78 5.85c-.02.21-.03.5-.03.86 0 .45.03.96.08 1.53-.54-.03-1.46-.04-2.74-.04-1.53 0-2.69.01-3.48.03v-.24c.29-.01.5-.05.63-.1s.22-.14.27-.28c.05-.14.08-.36.08-.66V5.76c0-.3-.02-.52-.07-.656-.04-.137-.13-.23-.27-.282-.13-.05-.33-.082-.62-.093v-.25c.79.02 1.95.03 3.48.03 1.18 0 2.01-.01 2.51-.04-.05.52-.08.99-.08 1.41 0 .31.01.56.04.74h-.28c-.06-.52-.13-.91-.22-1.16-.09-.26-.23-.44-.44-.55-.21-.12-.52-.18-.94-.18h-1c-.29 0-.5.02-.63.07s-.22.14-.27.27c-.04.13-.07.35-.07.65v2.83h.8c.4 0 .67-.12.8-.36.13-.25.22-.49.25-.74l.07-.49h.28c-.03.39-.04.77-.04 1.13v.57c0 .4.03.97.07 1.7h-.29l-.07-.58c-.03-.33-.14-.58-.32-.75-.18-.17-.43-.26-.75-.26h-.8v2.89c0 .3.02.52.07.66.05.13.14.22.27.27.13.04.34.07.63.07h.88c.5 0 .88-.07 1.14-.2.26-.13.45-.35.56-.64.12-.29.21-.72.27-1.29h.28zm8.41 2.4c-.01-.17-.04-.32-.1-.47-.06-.15-.13-.22-.23-.22-.05 0-.1.01-.14.04-.04.02-.13.07-.24.16-.28.21-.57.37-.87.48-.29.11-.63.16-1 .16-.82 0-1.52-.17-2.11-.51-.59-.34-1.04-.83-1.35-1.47-.31-.64-.46-1.41-.46-2.29 0-.92.17-1.73.49-2.41.33-.69.79-1.23 1.38-1.6.59-.38 1.25-.56 1.99-.56.33 0 .61.03.86.1.26.06.48.15.66.26.19.1.4.24.65.41.1.08.18.12.24.12.15 0 .25-.24.3-.73h.28c-.03.52-.04 1.44-.04 2.76h-.27c-.07-.43-.14-.78-.22-1.05-.09-.28-.21-.52-.38-.72-.23-.29-.53-.52-.91-.69-.37-.17-.76-.26-1.16-.26-.53 0-.99.17-1.39.52-.4.34-.7.83-.92 1.47-.22.63-.32 1.37-.32 2.23 0 .96.1 1.75.3 2.36.21.61.52 1.07.94 1.36.42.29.96.44 1.62.44.48 0 .9-.13 1.25-.38.15-.1.24-.19.28-.28.05-.09.07-.22.07-.38V10.7c0-.334-.03-.576-.1-.73-.06-.154-.18-.26-.34-.314-.16-.06-.42-.092-.78-.11v-.24c.39.03.96.04 1.69.04.57 0 .98-.01 1.25-.04v.24c-.19.018-.32.05-.4.1-.08.05-.13.14-.16.27s-.04.355-.04.66v2.38h-.24zm5.42-8.26c-.29.01-.5.04-.63.09-.13.05-.22.14-.27.28-.04.13-.07.35-.07.65v5.96c0 .3.03.52.07.65.05.13.14.23.27.28.14.05.35.08.64.09v.24c-.36-.03-.87-.04-1.52-.04-.69 0-1.2.01-1.53.03v-.24c.29-.02.5-.05.63-.1s.22-.15.27-.28c.05-.14.08-.36.08-.66V5.76c0-.3-.02-.52-.07-.656-.05-.137-.14-.23-.27-.282-.13-.05-.34-.082-.62-.093v-.25c.34.02.85.03 1.54.03.65 0 1.15-.01 1.52-.04v.24zm7.92 7.24c.2.49.48.75.83.76v.24c-.32-.03-.75-.04-1.29-.04-.68 0-1.19.01-1.53.03v-.24c.31-.01.53-.05.65-.11.14-.07.2-.18.2-.34 0-.14-.04-.33-.14-.57l-.74-1.97H86.5L86.01 11c-.16.405-.24.733-.24.983 0 .253.083.435.25.544.173.11.437.17.792.177v.24c-.46-.02-.92-.033-1.384-.033-.36 0-.66.01-.896.04v-.24c.396-.09.71-.43.94-1.04L88.3 4.4h.19l2.923 7.548zm-3.45-6.03l-1.38 3.58h2.72l-1.34-3.58zm12.61-1.22c-.28.01-.48.05-.62.12-.13.06-.22.17-.27.33-.05.15-.07.39-.07.69v7.16h-.28l-5.06-7.77v6.33c0 .3.03.54.09.69.06.15.16.27.31.34.16.06.39.1.71.11v.24c-.28-.03-.69-.04-1.22-.04-.47 0-.85.01-1.11.03v-.24c.28-.02.48-.05.62-.12.14-.07.23-.19.28-.34.05-.16.08-.39.08-.7v-5.8c0-.3-.02-.52-.07-.66s-.14-.23-.27-.28c-.13-.05-.34-.08-.63-.1v-.25c.27.02.64.03 1.12.03.36 0 .67-.01.94-.04L99.31 11V5.88c0-.31-.025-.54-.08-.697-.05-.157-.153-.268-.305-.334-.152-.07-.386-.11-.702-.13v-.24c.286.02.694.03 1.225.03.478 0 .85-.01 1.114-.04v.24zm14.57 0c-.29.01-.5.04-.63.09-.13.05-.22.14-.27.28-.04.13-.07.35-.07.65v5.96c0 .3.03.52.07.65.05.13.14.23.27.28.14.05.35.08.64.09v.24c-.37-.03-.88-.04-1.52-.04-.69 0-1.2.01-1.54.03v-.24c.29-.01.5-.04.63-.09.13-.05.22-.15.27-.28.05-.14.08-.36.08-.66v-6.4l-2.89 7.75h-.19l-3.02-7.79v6.33c0 .3.03.54.08.69.06.15.16.27.31.34.15.06.39.1.7.11v.24c-.28-.03-.69-.04-1.22-.04-.48 0-.85.01-1.11.03v-.24c.28-.01.49-.05.62-.12.14-.07.23-.19.28-.34.05-.16.08-.39.08-.7v-5.8c0-.3-.03-.52-.08-.66s-.14-.23-.27-.28c-.13-.05-.34-.08-.63-.1v-.25c.26.02.64.03 1.12.03.42 0 .77-.01 1.03-.04l2.64 6.96 2.57-6.93h.57c.64 0 1.15-.01 1.52-.04v.24zm7.91 7.24c.2.49.48.75.83.76v.24c-.32-.03-.75-.04-1.29-.04-.68 0-1.19.01-1.53.03v-.24c.31-.01.52-.05.65-.11.14-.07.2-.18.2-.34 0-.14-.04-.33-.14-.57L121 9.77h-2.895l-.492 1.27c-.16.407-.24.735-.24.985 0 .254.084.436.252.545.17.11.435.168.79.176v.24c-.456-.023-.917-.035-1.382-.035-.36 0-.658.01-.897.04v-.24c.4-.09.713-.43.944-1.04l2.824-7.27h.193l2.924 7.55zm-3.45-6.03l-1.38 3.58h2.72l-1.34-3.58zm11.86 7.03c0-.17-.04-.32-.1-.47-.06-.15-.13-.22-.22-.22-.05 0-.1.01-.15.04-.04.02-.13.08-.24.16-.28.21-.57.38-.87.48-.29.11-.63.16-1 .16-.82 0-1.52-.17-2.11-.51-.59-.34-1.04-.83-1.35-1.47-.31-.64-.47-1.41-.47-2.29 0-.92.16-1.72.49-2.41.33-.69.79-1.22 1.37-1.6.59-.37 1.25-.56 2-.56.33 0 .61.03.86.1.26.07.48.15.66.26.19.1.41.24.65.41.1.08.18.12.24.12.15 0 .25-.25.3-.74h.27c-.03.52-.05 1.44-.05 2.76h-.27c-.07-.43-.14-.78-.23-1.05-.08-.28-.2-.52-.37-.72-.23-.29-.54-.52-.91-.69-.37-.17-.76-.25-1.17-.25-.52 0-.99.17-1.39.52-.4.34-.7.83-.92 1.47-.22.63-.33 1.37-.33 2.22 0 .96.1 1.75.3 2.36.21.61.52 1.07.94 1.37.42.29.96.44 1.62.44.48 0 .9-.13 1.25-.38.15-.1.24-.2.28-.29.05-.09.07-.22.07-.38v-1.1c0-.336-.03-.578-.1-.73-.07-.158-.18-.26-.34-.318-.17-.06-.43-.096-.78-.11V9.3c.39.03.96.04 1.69.04.56 0 .98-.01 1.25-.04v.24c-.18.02-.32.05-.4.1-.08.05-.13.14-.16.27-.022.135-.04.356-.04.66v2.38h-.24zm8.67-1.01c.2.49.47.75.83.77v.24c-.32-.03-.75-.04-1.29-.04-.68 0-1.19.01-1.53.03v-.24c.31-.02.52-.05.65-.11.14-.07.2-.18.2-.34 0-.14-.04-.32-.14-.56l-.74-1.97h-2.9l-.49 1.27c-.16.41-.24.73-.24.98s.09.43.26.54c.17.11.44.17.79.18v.24c-.45-.03-.91-.04-1.38-.04-.36 0-.66.01-.9.04v-.24c.4-.09.72-.44.95-1.05L137 4.4h.192l2.92 7.55zm-3.45-6.03l-1.38 3.58h2.7l-1.34-3.58zm6.44 6.76h2.53c.5 0 .88-.07 1.14-.22.26-.14.45-.36.57-.67.12-.31.21-.76.27-1.36h.28c-.02.29-.04.62-.04.98 0 .41.03.93.09 1.54-.59-.03-1.59-.04-2.99-.04-1.36 0-2.35.01-2.96.03v-.24l5-7.98h-2.52c-.5 0-.88.07-1.14.21-.26.14-.45.37-.56.67-.11.31-.2.76-.26 1.36h-.27c.03-.26.04-.58.04-.99 0-.46-.03-.97-.08-1.54.59.02 1.59.03 2.99.03 1.36 0 2.33-.01 2.91-.04v.24l-4.96 7.98zm9.67-7.98c-.29.01-.5.04-.63.09-.13.05-.22.14-.27.28-.04.13-.07.35-.07.65v5.96c0 .3.03.52.07.66.05.14.14.23.27.28.13.05.35.08.63.09v.24c-.37-.03-.88-.04-1.52-.04-.69 0-1.2.01-1.53.03v-.24c.29-.01.5-.04.63-.1.14-.05.23-.15.27-.28.05-.14.08-.36.08-.66v-5.9c0-.3-.02-.52-.07-.66-.04-.14-.13-.23-.27-.28-.13-.05-.33-.08-.62-.1v-.25c.33.02.85.03 1.54.03.65 0 1.16-.01 1.52-.04v.24zm9.14 0c-.27.01-.48.05-.62.12-.13.06-.22.17-.27.33-.05.15-.07.39-.07.69V13h-.28l-5.08-7.75v6.335c0 .308.03.54.09.697.06.156.16.27.31.34.15.066.39.105.71.117v.24c-.28-.03-.69-.04-1.22-.04-.47 0-.84.01-1.11.03v-.24c.28-.01.49-.05.62-.12.13-.07.23-.19.28-.34.05-.16.07-.39.07-.7V5.76c0-.3-.03-.52-.08-.656-.05-.137-.14-.23-.27-.282-.13-.05-.34-.082-.63-.093v-.25c.26.02.63.03 1.11.03.36 0 .67-.01.94-.04l4.24 6.53V5.88c0-.31-.03-.54-.08-.697-.05-.157-.15-.268-.31-.334-.15-.07-.39-.11-.7-.13v-.24c.28.02.69.03 1.22.03.47 0 .84-.01 1.11-.04v.24zm7.72 5.85c-.02.21-.03.5-.03.86 0 .45.03.96.09 1.53-.54-.03-1.46-.04-2.74-.04-1.53 0-2.69.01-3.48.03v-.24c.29-.01.5-.05.63-.1s.22-.14.27-.28c.05-.14.08-.36.08-.66v-5.9c0-.3-.02-.52-.08-.66-.04-.14-.13-.23-.27-.28-.12-.05-.33-.08-.62-.1v-.25c.78.02 1.94.03 3.48.03 1.17 0 2.01-.01 2.51-.04-.05.52-.08.99-.08 1.41 0 .31.02.56.04.74h-.27c-.06-.52-.13-.91-.22-1.16-.09-.26-.24-.44-.45-.55-.21-.12-.52-.18-.95-.18h-1c-.29 0-.5.02-.634.07-.13.05-.22.14-.27.27-.04.13-.07.35-.07.65v2.83h.8c.4 0 .67-.12.8-.36.13-.25.21-.49.24-.74s.055-.41.07-.49h.27c-.03.39-.04.77-.04 1.13l.004.57c0 .4.022.97.07 1.7h-.276l-.07-.58c-.03-.33-.14-.58-.32-.75-.18-.17-.43-.258-.75-.258h-.794v2.89c0 .3.02.52.07.66.05.13.14.22.27.27.13.046.34.07.63.07h.88c.5 0 .88-.066 1.136-.2.27-.13.45-.345.57-.64.12-.29.21-.72.27-1.29h.276z"/></defs></svg>
