<svg width="64" height="64" viewBox="0 0 64 64" xmlns="http://www.w3.org/2000/svg" xmlns:xlink="http://www.w3.org/1999/xlink" xmlns:figma="http://www.figma.com/figma/ns"><title>The Collegian Magazine</title><g transform="translate(0 39)" figma:type="canvas"><mask id="a"><path d="M0-39h64v64H0v-64z" fill="#FFF"/></mask><g style="mix-blend-mode:normal" mask="url(#a)" figma:type="frame"><path d="M0-39h64v64H0v-64z" fill="#080B13"/><use xlink:href="#b" transform="translate(4 -36)" fill="#FBFBFF" style="mix-blend-mode:normal" figma:type="text"/><use xlink:href="#c" transform="translate(9 9)" fill="#F6E06E" style="mix-blend-mode:normal" figma:type="rounded-rectangle"/></g></g><defs><path id="b" d="M21.874 40.128c-.055-.708-.15-1.218-.282-1.527-.122-.32-.305-.48-.548-.48-.177 0-.41.1-.697.28-.675.48-1.3.87-1.876 1.18-.56.3-1.21.55-1.94.73-.73.2-1.55.3-2.47.3-2.16 0-4.05-.48-5.68-1.46-1.61-.97-2.87-2.38-3.77-4.23-.88-1.86-1.32-4.06-1.32-6.62 0-2.5.46-4.71 1.38-6.64.92-1.92 2.2-3.42 3.84-4.48 1.64-1.06 3.5-1.59 5.59-1.59 1.35 0 2.5.2 3.46.58.967.39 1.9.93 2.81 1.63.247.2.468.3.668.3.467 0 .754-.67.865-2.02h.78c-.09 1.47-.132 4.08-.132 7.82h-.78c-.164-1.02-.32-1.81-.463-2.37-.13-.563-.29-1.04-.48-1.426-.19-.4-.442-.81-.763-1.23-.685-.885-1.554-1.55-2.605-1.99-1.05-.444-2.184-.666-3.4-.666-1.47 0-2.76.49-3.868 1.46-1.105.976-1.963 2.365-2.572 4.17-.61 1.803-.914 3.917-.914 6.34 0 2.47.334 4.59.998 6.36.665 1.77 1.578 3.115 2.74 4.034 1.16.92 2.48 1.38 3.95 1.38 1.13 0 2.23-.214 3.305-.65 1.077-.43 1.91-1.075 2.51-1.94.465-.62.797-1.29.996-2.01.2-.73.39-1.85.58-3.37h.78c0 3.91.042 6.63.13 8.17h-.78zm31.194-23.392c-.82.034-1.416.122-1.793.266-.365.144-.62.41-.763.797-.133.38-.2 1-.2 1.85v16.87c0 .85.067 1.47.2 1.86.144.38.398.65.763.79.377.14.974.23 1.793.26v.68c-1.062-.07-2.5-.1-4.316-.1-1.948 0-3.398.03-4.35.1v-.68c.82-.038 1.41-.12 1.777-.27.36-.14.61-.41.74-.795.14-.386.21-1.005.21-1.86V18.33l-8.18 21.964h-.55L29.84 18.23v17.947c0 .874.076 1.533.23 1.975.156.443.444.764.865.963.43.188 1.094.3 1.99.332v.68c-.807-.066-1.964-.1-3.47-.1-1.35 0-2.4.035-3.153.1v-.68c.785-.033 1.367-.144 1.743-.332.387-.2.653-.52.797-.963.144-.442.215-1.1.215-1.975v-16.52c0-.85-.07-1.47-.216-1.858-.13-.39-.38-.66-.76-.8-.36-.15-.95-.23-1.77-.27v-.68c.74.06 1.8.1 3.16.1 1.2 0 2.17-.04 2.91-.1l7.47 19.72 7.31-19.63h1.61c1.818 0 3.257-.04 4.32-.1v.68z"/><path id="c" d="M0 0h48v2H0V0z"/></defs></svg>
