<svg id="masthead" xmlns="http://www.w3.org/2000/svg" viewBox="0 0 512.42 48"><defs><style>.cls-1{fill:#ff0;}</style></defs><title>colmag-logo</title><rect id="underline" class="cls-1" x="-0.2" y="44.37" width="513" height="4"/><g id="letters"><path d="M.36,10.08A60.44,60.44,0,0,0,0,3.76q4.1.14,13.93.14T27.8,3.76q-.34,3.52-.34,6.32,0,2.48.14,4.05H26.47a30,30,0,0,0-1-5.68,4.58,4.58,0,0,0-2.07-2.7,9.37,9.37,0,0,0-4.54-.86H16.2V33a8.56,8.56,0,0,0,.39,3A2.24,2.24,0,0,0,18,37.3a11.46,11.46,0,0,0,3.21.43v1q-2.6-.14-7.26-.14-4.94,0-7.3.14v-1a11.46,11.46,0,0,0,3.21-.43A2.24,2.24,0,0,0,11.23,36a8.56,8.56,0,0,0,.39-3V4.89H8.94a9.37,9.37,0,0,0-4.54.86,4.58,4.58,0,0,0-2.07,2.7,30,30,0,0,0-1,5.68H.22Q.36,12.56.36,10.08Z"/><path d="M41.08,14a9.12,9.12,0,0,1,5-1.39,6.93,6.93,0,0,1,5.23,1.86A5.81,5.81,0,0,1,52.6,17a16,16,0,0,1,.4,4V34.14a5,5,0,0,0,.37,2.15,2.12,2.12,0,0,0,1.18,1.08,6.27,6.27,0,0,0,2.21.31v1q-4.63-.19-5.93-.19t-5.54.19v-1a4.82,4.82,0,0,0,1.93-.31,2,2,0,0,0,1-1.08,5.68,5.68,0,0,0,.33-2.15V19.87a13.06,13.06,0,0,0-.29-3,3.58,3.58,0,0,0-1.17-2,3.83,3.83,0,0,0-2.54-.75A6,6,0,0,0,41,15.32a7.49,7.49,0,0,0-2.46,3.18,11.54,11.54,0,0,0-.88,4.62v11A5.68,5.68,0,0,0,38,36.28a2,2,0,0,0,1,1.08,4.73,4.73,0,0,0,1.92.31v1q-4.15-.19-5.52-.19t-5.93.19v-1a6.27,6.27,0,0,0,2.21-.31,2.12,2.12,0,0,0,1.18-1.08,5,5,0,0,0,.37-2.15V6a5.27,5.27,0,0,0-.83-3.31,3.59,3.59,0,0,0-2.93-1V.6Q31,.75,32.51.75A15.57,15.57,0,0,0,37.65,0V18.52A9,9,0,0,1,41.08,14Z"/><path d="M78,36a9.66,9.66,0,0,1-3.16,2.45,9.38,9.38,0,0,1-4.23.94,11.26,11.26,0,0,1-6.09-1.6,10.26,10.26,0,0,1-3.92-4.51,15.72,15.72,0,0,1-1.35-6.69,18.56,18.56,0,0,1,1.37-7.45,11,11,0,0,1,3.89-4.86,10.29,10.29,0,0,1,5.89-1.7,8.68,8.68,0,0,1,6.83,2.69q2.4,2.69,2.4,8.16H64.23a24.73,24.73,0,0,0-.17,3.16,14,14,0,0,0,1.07,5.69A9.15,9.15,0,0,0,67.94,36a6,6,0,0,0,3.66,1.3q5,0,7.26-4.94l1,.39A9.85,9.85,0,0,1,78,36ZM74.5,18a7.45,7.45,0,0,0-1.59-3.25,3.46,3.46,0,0,0-2.68-1.21,4.51,4.51,0,0,0-2.8,1,7.38,7.38,0,0,0-2.16,3,15.71,15.71,0,0,0-1.12,5H74.91A16.13,16.13,0,0,0,74.5,18Z"/><path id="CapitalC" d="M122.51,36.49c-.18-.46-.45-.69-.81-.69a2,2,0,0,0-1,.41,25.71,25.71,0,0,1-2.71,1.7A13,13,0,0,1,115.14,39a14.16,14.16,0,0,1-3.59.42,15.68,15.68,0,0,1-8.23-2.12,14.08,14.08,0,0,1-5.47-6.16,22,22,0,0,1-1.94-9.61,22.15,22.15,0,0,1,2-9.64,15.5,15.5,0,0,1,5.57-6.51,14.6,14.6,0,0,1,8.12-2.31,13.4,13.4,0,0,1,5,.84,17.37,17.37,0,0,1,4.06,2.36,1.59,1.59,0,0,0,1,.43q1,0,1.25-2.94H124q-.19,3.21-.19,11.36h-1.13q-.36-2.22-.66-3.45a10.84,10.84,0,0,0-.71-2.09,10.25,10.25,0,0,0-1.11-1.77,9.24,9.24,0,0,0-3.79-2.89,12.6,12.6,0,0,0-4.94-1,8.24,8.24,0,0,0-5.62,2.12,13.68,13.68,0,0,0-3.74,6.05,28.84,28.84,0,0,0-1.33,9.21,26.33,26.33,0,0,0,1.45,9.23,13.11,13.11,0,0,0,4,5.86,9,9,0,0,0,5.74,2,12.75,12.75,0,0,0,4.8-.94,7.86,7.86,0,0,0,3.64-2.82,8.68,8.68,0,0,0,1.45-2.93,37.59,37.59,0,0,0,.84-4.88h1.13q0,8.51.19,11.86h-1.13A8.16,8.16,0,0,0,122.51,36.49Z"/><path d="M146.05,14a9.81,9.81,0,0,1,4,4.42A17.33,17.33,0,0,1,151.49,26,17.25,17.25,0,0,1,150,33.61a9.73,9.73,0,0,1-4,4.4,12.51,12.51,0,0,1-11.55,0,9.73,9.73,0,0,1-4-4.4A17.25,17.25,0,0,1,129.07,26a17.33,17.33,0,0,1,1.46-7.58,9.81,9.81,0,0,1,4-4.42,12.43,12.43,0,0,1,11.55,0Zm-10.46,2.6q-1.72,3-1.72,9.4t1.72,9.36a5.15,5.15,0,0,0,9.38,0q1.72-3,1.72-9.36T145,16.63a5.14,5.14,0,0,0-9.38,0Z"/><path d="M162.48,36.28a2.12,2.12,0,0,0,1.18,1.08,6.27,6.27,0,0,0,2.21.31v1q-4.53-.19-6-.19t-6,.19v-1a6.27,6.27,0,0,0,2.21-.31,2.12,2.12,0,0,0,1.18-1.08,5,5,0,0,0,.37-2.15V5.93a5.27,5.27,0,0,0-.83-3.31,3.59,3.59,0,0,0-2.93-1v-1Q155.45.7,157,.7a15.57,15.57,0,0,0,5.14-.7V34.14A5,5,0,0,0,162.48,36.28Z"/><path d="M176.12,36.28a2.12,2.12,0,0,0,1.18,1.08,6.27,6.27,0,0,0,2.21.31v1q-4.53-.19-6-.19t-6,.19v-1a6.27,6.27,0,0,0,2.21-.31,2.12,2.12,0,0,0,1.18-1.08,5,5,0,0,0,.37-2.15V5.93a5.27,5.27,0,0,0-.83-3.31,3.59,3.59,0,0,0-2.93-1v-1q1.54.14,3.06.14a15.57,15.57,0,0,0,5.14-.7V34.14A5,5,0,0,0,176.12,36.28Z"/><path d="M200.62,36a9.66,9.66,0,0,1-3.16,2.45,9.38,9.38,0,0,1-4.23.94,11.26,11.26,0,0,1-6.09-1.6,10.26,10.26,0,0,1-3.92-4.51,15.72,15.72,0,0,1-1.35-6.69,18.56,18.56,0,0,1,1.37-7.45,11,11,0,0,1,3.89-4.86,10.29,10.29,0,0,1,5.89-1.7,8.68,8.68,0,0,1,6.83,2.69q2.4,2.69,2.4,8.16H186.84a24.73,24.73,0,0,0-.17,3.16,14,14,0,0,0,1.07,5.69A9.15,9.15,0,0,0,190.56,36a6,6,0,0,0,3.66,1.3q5,0,7.26-4.94l1,.39A9.85,9.85,0,0,1,200.62,36Zm-3.51-18a7.45,7.45,0,0,0-1.59-3.25,3.46,3.46,0,0,0-2.68-1.21,4.51,4.51,0,0,0-2.8,1,7.38,7.38,0,0,0-2.16,3,15.71,15.71,0,0,0-1.12,5h10.75A16.13,16.13,0,0,0,197.12,18Z"/><path d="M227.18,34.38a3.91,3.91,0,0,1,1.6,3.5,8.52,8.52,0,0,1-1.53,4.7,11.43,11.43,0,0,1-4.65,3.88A17.1,17.1,0,0,1,215,48a22,22,0,0,1-4.86-.52,10,10,0,0,1-3.68-1.54,3,3,0,0,1-1.4-2.47,4.45,4.45,0,0,1,1.77-3.27,16.91,16.91,0,0,1,4.42-2.76h-.17a7.29,7.29,0,0,1-3.41-.8,3,3,0,0,1-1.53-3,4.69,4.69,0,0,1,1.4-3.21,14.89,14.89,0,0,1,4.77-3,7.07,7.07,0,0,1-3.38-2.6,7.68,7.68,0,0,1-1.21-4.44,7,7,0,0,1,2.5-5.85,10.49,10.49,0,0,1,6.62-1.94,13.09,13.09,0,0,1,3.5.43,10,10,0,0,1,1.74-4.39A4.15,4.15,0,0,1,225.43,7a2.52,2.52,0,0,1,1.92.72A2.59,2.59,0,0,1,228,9.6,2.31,2.31,0,0,1,225.67,12a2.09,2.09,0,0,1-1.81-.76A5.63,5.63,0,0,1,223,8.85a5.84,5.84,0,0,0-1.33,2.41,12.26,12.26,0,0,0-.51,2,7.16,7.16,0,0,1,3.5,2.59A7.6,7.6,0,0,1,226,20.4a7.64,7.64,0,0,1-1.18,4.38,7,7,0,0,1-3.23,2.59,12.33,12.33,0,0,1-4.73.84,13.51,13.51,0,0,1-3.64-.46,17.88,17.88,0,0,0-3.07,2A2.56,2.56,0,0,0,209,31.65a1.43,1.43,0,0,0,.55,1.23,3.09,3.09,0,0,0,1.81.41H223A7.33,7.33,0,0,1,227.18,34.38ZM210,39.63a5.13,5.13,0,0,0-.88,2.8,3.6,3.6,0,0,0,1.06,2.65,6.41,6.41,0,0,0,2.72,1.57,11.69,11.69,0,0,0,3.42.51,12.23,12.23,0,0,0,4.29-.78A8.28,8.28,0,0,0,224,44a5.69,5.69,0,0,0,1.35-3.82,3.22,3.22,0,0,0-.33-1.56,2,2,0,0,0-1.15-.89,6.88,6.88,0,0,0-2.29-.3h-9.19A6.26,6.26,0,0,0,210,39.63Zm3.52-24.58q-1.15,1.58-1.15,5.34t1.15,5.34a4.36,4.36,0,0,0,6.7,0q1.15-1.57,1.15-5.35T220.19,15a4.36,4.36,0,0,0-6.7,0Z"/><path d="M239.17,36.28a2.12,2.12,0,0,0,1.18,1.08,6.27,6.27,0,0,0,2.21.31v1q-4.53-.19-6-.19t-6,.19v-1a6.27,6.27,0,0,0,2.21-.31A2.12,2.12,0,0,0,234,36.28a5,5,0,0,0,.37-2.15V18.68a5.32,5.32,0,0,0-.83-3.33,3.57,3.57,0,0,0-2.93-1v-1q1.54.14,3.06.14a16.36,16.36,0,0,0,5.14-.68V34.14A5,5,0,0,0,239.17,36.28ZM237.81,1.37A3.32,3.32,0,0,1,239,2.53a3,3,0,0,1,.43,1.57A3.05,3.05,0,0,1,239,5.68a3.2,3.2,0,0,1-1.16,1.16,3.06,3.06,0,0,1-1.57.42,3.12,3.12,0,0,1-1.58-.42,3.08,3.08,0,0,1-1.16-1.16,3.12,3.12,0,0,1-.42-1.58,3.06,3.06,0,0,1,.42-1.57,3.2,3.2,0,0,1,1.16-1.16,3.05,3.05,0,0,1,1.58-.43A3,3,0,0,1,237.81,1.37Z"/><path d="M257.75,14.65a5,5,0,0,0-3.39-1q-3.5,0-4.89,1.76a3,3,0,0,1,2.31,3,2.52,2.52,0,0,1-.78,2,3,3,0,0,1-2.11.71,2.43,2.43,0,0,1-2-.84,3.33,3.33,0,0,1-.71-2.22q0-1.93,2.31-3.52a11.25,11.25,0,0,1,3-1.33,13.72,13.72,0,0,1,3.94-.53,11.71,11.71,0,0,1,3.57.49,5.88,5.88,0,0,1,2.41,1.36A6.11,6.11,0,0,1,263,17.15a16.65,16.65,0,0,1,.42,4.23V35.1a3.46,3.46,0,0,0,.35,1.78,1.27,1.27,0,0,0,1.17.55,2.35,2.35,0,0,0,1.11-.27,6.37,6.37,0,0,0,1.11-.77l.55.84q-.87.65-1.45,1a5.25,5.25,0,0,1-1.33.58,6.25,6.25,0,0,1-1.74.22,4,4,0,0,1-3.31-1.19,5.06,5.06,0,0,1-.93-3.19,8.55,8.55,0,0,1-3.47,3.39,9.22,9.22,0,0,1-4.12,1,8.14,8.14,0,0,1-3.13-.59,5.06,5.06,0,0,1-2.28-1.83,5.34,5.34,0,0,1-.86-3.1,5.5,5.5,0,0,1,.92-3.21A8.2,8.2,0,0,1,248.58,28,36.34,36.34,0,0,1,253,25.82l2.36-1a9.26,9.26,0,0,0,2.71-1.54,2.28,2.28,0,0,0,.83-1.69V18.56Q258.94,15.69,257.75,14.65Zm0,10q-.84.48-3.52,1.78a15.58,15.58,0,0,0-2.41,1.39,6.06,6.06,0,0,0-1.69,1.92,5.83,5.83,0,0,0-.7,3A4.42,4.42,0,0,0,250.5,36a3.85,3.85,0,0,0,2.87,1.1q3.28,0,5.57-3.74V23.65A3.44,3.44,0,0,1,257.74,24.69Z"/><path d="M280.3,14a9,9,0,0,1,5-1.41,6.93,6.93,0,0,1,5.23,1.86,6,6,0,0,1,1.31,2.5,16,16,0,0,1,.4,4V34.14a5,5,0,0,0,.37,2.15,2.12,2.12,0,0,0,1.18,1.08,6.27,6.27,0,0,0,2.21.31v1q-4.53-.19-5.93-.19t-5.52.19v-1a4.73,4.73,0,0,0,1.92-.31,2,2,0,0,0,1-1.08,5.68,5.68,0,0,0,.33-2.15V19.87a13.6,13.6,0,0,0-.28-3,3.52,3.52,0,0,0-1.16-2,3.87,3.87,0,0,0-2.57-.75,5.86,5.86,0,0,0-3.6,1.18,7.65,7.65,0,0,0-2.45,3.24,11.66,11.66,0,0,0-.87,4.57v11a5.68,5.68,0,0,0,.33,2.15,2,2,0,0,0,1,1.08,4.82,4.82,0,0,0,1.93.31v1q-4.15-.19-5.54-.19t-5.93.19v-1a6.27,6.27,0,0,0,2.21-.31,2.12,2.12,0,0,0,1.18-1.08,5,5,0,0,0,.37-2.15V18.68a5.32,5.32,0,0,0-.83-3.33,3.57,3.57,0,0,0-2.93-1v-1q1.54.14,3.06.14a16.36,16.36,0,0,0,5.14-.68v5.81A9.11,9.11,0,0,1,280.3,14Z"/><path id="CapitalM" d="M346.39,5.14a1.84,1.84,0,0,0-1.11,1.16A8.73,8.73,0,0,0,345,9V33.49a8.73,8.73,0,0,0,.3,2.7,1.84,1.84,0,0,0,1.11,1.16,8.75,8.75,0,0,0,2.59.39v1q-2.31-.14-6.27-.14-4.24,0-6.32.14v-1a8.61,8.61,0,0,0,2.58-.39,1.85,1.85,0,0,0,1.1-1.16,8.73,8.73,0,0,0,.3-2.7V7.06L328.48,39h-.8l-12.44-32V33a9.21,9.21,0,0,0,.34,2.87,2.29,2.29,0,0,0,1.27,1.38,8,8,0,0,0,2.88.5v1q-1.76-.14-5-.14-2.94,0-4.58.14v-1a6.43,6.43,0,0,0,2.54-.5,2.25,2.25,0,0,0,1.15-1.38,9.88,9.88,0,0,0,.31-2.87V9a8.73,8.73,0,0,0-.3-2.7,1.84,1.84,0,0,0-1.11-1.16,8.75,8.75,0,0,0-2.59-.39v-1q1.62.14,4.58.14,2.6,0,4.22-.14L329.76,32.4l10.61-28.5h2.34q4,0,6.27-.14v1A8.75,8.75,0,0,0,346.39,5.14Z"/><path d="M364.91,14.65a5,5,0,0,0-3.39-1q-3.5,0-4.89,1.76a3,3,0,0,1,2.31,3,2.52,2.52,0,0,1-.78,2,3,3,0,0,1-2.11.71,2.43,2.43,0,0,1-2-.84,3.33,3.33,0,0,1-.71-2.22q0-1.93,2.31-3.52a11.25,11.25,0,0,1,3-1.33,13.72,13.72,0,0,1,3.94-.53,11.71,11.71,0,0,1,3.57.49,5.88,5.88,0,0,1,2.41,1.36,6.11,6.11,0,0,1,1.55,2.69,16.65,16.65,0,0,1,.42,4.23V35.1a3.46,3.46,0,0,0,.35,1.78,1.27,1.27,0,0,0,1.17.55,2.35,2.35,0,0,0,1.11-.27,6.37,6.37,0,0,0,1.11-.77l.55.84q-.87.65-1.45,1a5.25,5.25,0,0,1-1.33.58,6.25,6.25,0,0,1-1.74.22A4,4,0,0,1,367,37.86a5.06,5.06,0,0,1-.93-3.19,8.55,8.55,0,0,1-3.47,3.39,9.22,9.22,0,0,1-4.12,1,8.14,8.14,0,0,1-3.13-.59,5.06,5.06,0,0,1-2.28-1.83,5.34,5.34,0,0,1-.86-3.1,5.5,5.5,0,0,1,.92-3.21A8.2,8.2,0,0,1,355.74,28a36.34,36.34,0,0,1,4.46-2.18l2.36-1a9.26,9.26,0,0,0,2.71-1.54,2.28,2.28,0,0,0,.83-1.69V18.56Q366.11,15.69,364.91,14.65Zm0,10q-.84.48-3.52,1.78A15.58,15.58,0,0,0,359,27.86a6.06,6.06,0,0,0-1.69,1.92,5.83,5.83,0,0,0-.7,3A4.42,4.42,0,0,0,357.67,36a3.85,3.85,0,0,0,2.87,1.1q3.28,0,5.57-3.74V23.65A3.44,3.44,0,0,1,364.9,24.69Z"/><path d="M397.5,34.38a3.91,3.91,0,0,1,1.6,3.5,8.52,8.52,0,0,1-1.53,4.7,11.43,11.43,0,0,1-4.65,3.88A17.1,17.1,0,0,1,385.29,48a22,22,0,0,1-4.86-.52,10,10,0,0,1-3.68-1.54,3,3,0,0,1-1.4-2.47,4.45,4.45,0,0,1,1.77-3.27,16.91,16.91,0,0,1,4.42-2.76h-.17a7.29,7.29,0,0,1-3.41-.8,3,3,0,0,1-1.53-3,4.69,4.69,0,0,1,1.4-3.21,14.89,14.89,0,0,1,4.77-3,7.07,7.07,0,0,1-3.38-2.6A7.68,7.68,0,0,1,378,20.4a7,7,0,0,1,2.5-5.85,10.49,10.49,0,0,1,6.62-1.94,13.09,13.09,0,0,1,3.5.43,10,10,0,0,1,1.74-4.39A4.15,4.15,0,0,1,395.75,7a2.52,2.52,0,0,1,1.92.72,2.59,2.59,0,0,1,.69,1.86A2.31,2.31,0,0,1,396,12a2.09,2.09,0,0,1-1.81-.76,5.63,5.63,0,0,1-.82-2.35A5.84,5.84,0,0,0,392,11.26a12.26,12.26,0,0,0-.51,2A7.16,7.16,0,0,1,395,15.9a7.6,7.6,0,0,1,1.25,4.5,7.64,7.64,0,0,1-1.18,4.38,7,7,0,0,1-3.23,2.59,12.33,12.33,0,0,1-4.73.84,13.51,13.51,0,0,1-3.64-.46,17.88,17.88,0,0,0-3.07,2,2.56,2.56,0,0,0-1.07,1.94,1.43,1.43,0,0,0,.55,1.23,3.09,3.09,0,0,0,1.81.41h11.6A7.33,7.33,0,0,1,397.5,34.38Zm-17.21,5.26a5.13,5.13,0,0,0-.88,2.8,3.6,3.6,0,0,0,1.06,2.65,6.41,6.41,0,0,0,2.72,1.57,11.69,11.69,0,0,0,3.42.51,12.23,12.23,0,0,0,4.29-.78A8.28,8.28,0,0,0,394.35,44a5.69,5.69,0,0,0,1.35-3.82,3.22,3.22,0,0,0-.33-1.56,2,2,0,0,0-1.15-.89,6.88,6.88,0,0,0-2.29-.3h-9.19A6.26,6.26,0,0,0,380.28,39.63Zm3.52-24.58q-1.15,1.58-1.15,5.34t1.15,5.34a4.36,4.36,0,0,0,6.7,0q1.15-1.57,1.15-5.35T390.51,15a4.36,4.36,0,0,0-6.7,0Z"/><path d="M414.1,14.65a5,5,0,0,0-3.39-1q-3.5,0-4.89,1.76a3,3,0,0,1,2.31,3,2.52,2.52,0,0,1-.78,2,3,3,0,0,1-2.11.71,2.43,2.43,0,0,1-2-.84,3.33,3.33,0,0,1-.71-2.22q0-1.93,2.31-3.52a11.25,11.25,0,0,1,3-1.33,13.72,13.72,0,0,1,3.94-.53,11.71,11.71,0,0,1,3.57.49,5.88,5.88,0,0,1,2.41,1.36,6.11,6.11,0,0,1,1.55,2.69,16.65,16.65,0,0,1,.42,4.23V35.1a3.46,3.46,0,0,0,.35,1.78,1.27,1.27,0,0,0,1.17.55,2.35,2.35,0,0,0,1.11-.27,6.37,6.37,0,0,0,1.11-.77l.55.84q-.87.65-1.45,1a5.25,5.25,0,0,1-1.33.58,6.25,6.25,0,0,1-1.74.22,4,4,0,0,1-3.31-1.19,5.06,5.06,0,0,1-.93-3.19,8.55,8.55,0,0,1-3.47,3.39,9.22,9.22,0,0,1-4.12,1,8.14,8.14,0,0,1-3.13-.59,5.06,5.06,0,0,1-2.28-1.83,5.34,5.34,0,0,1-.86-3.1,5.5,5.5,0,0,1,.92-3.21A8.2,8.2,0,0,1,404.92,28a36.34,36.34,0,0,1,4.46-2.18l2.36-1a9.26,9.26,0,0,0,2.71-1.54,2.28,2.28,0,0,0,.83-1.69V18.56Q415.29,15.69,414.1,14.65Zm0,10q-.84.48-3.52,1.78a15.58,15.58,0,0,0-2.41,1.39,6.06,6.06,0,0,0-1.69,1.92,5.83,5.83,0,0,0-.7,3A4.42,4.42,0,0,0,406.85,36a3.85,3.85,0,0,0,2.87,1.1q3.28,0,5.57-3.74V23.65A3.44,3.44,0,0,1,414.08,24.69Z"/><path d="M436.42,38a6.22,6.22,0,0,0,4.8-1.89q1.76-1.89,2.07-6h1.13q0,6.44.19,8.87-3.86-.19-9.16-.19-4.73,0-10,.24L439.75,14H434.3a7.4,7.4,0,0,0-3.64.8,5.25,5.25,0,0,0-2.21,2.54,14.05,14.05,0,0,0-1,4.62h-1.13q0-6.53-.22-8.9,3.88.19,9.19.19,4.73,0,10-.24L431,38Z"/><path d="M456.6,36.28a2.12,2.12,0,0,0,1.18,1.08,6.27,6.27,0,0,0,2.21.31v1q-4.53-.19-6-.19t-6,.19v-1a6.27,6.27,0,0,0,2.21-.31,2.12,2.12,0,0,0,1.18-1.08,5,5,0,0,0,.37-2.15V18.68a5.32,5.32,0,0,0-.83-3.33,3.57,3.57,0,0,0-2.93-1v-1q1.54.14,3.06.14a16.36,16.36,0,0,0,5.14-.68V34.14A5,5,0,0,0,456.6,36.28ZM455.24,1.37a3.32,3.32,0,0,1,1.16,1.16,3,3,0,0,1,.43,1.57,3.05,3.05,0,0,1-.43,1.58,3.2,3.2,0,0,1-1.16,1.16,3.06,3.06,0,0,1-1.57.42,3.12,3.12,0,0,1-1.58-.42,3.08,3.08,0,0,1-1.16-1.16,3.12,3.12,0,0,1-.42-1.58,3.06,3.06,0,0,1,.42-1.57,3.2,3.2,0,0,1,1.16-1.16,3.05,3.05,0,0,1,1.58-.43A3,3,0,0,1,455.24,1.37Z"/><path d="M473.63,14a9,9,0,0,1,5-1.41,6.93,6.93,0,0,1,5.23,1.86,6,6,0,0,1,1.31,2.5,16,16,0,0,1,.4,4V34.14a5,5,0,0,0,.37,2.15,2.12,2.12,0,0,0,1.18,1.08,6.27,6.27,0,0,0,2.21.31v1q-4.53-.19-5.93-.19t-5.52.19v-1a4.73,4.73,0,0,0,1.92-.31,2,2,0,0,0,1-1.08,5.68,5.68,0,0,0,.33-2.15V19.87a13.6,13.6,0,0,0-.28-3,3.52,3.52,0,0,0-1.16-2,3.87,3.87,0,0,0-2.57-.75,5.86,5.86,0,0,0-3.6,1.18,7.65,7.65,0,0,0-2.45,3.24,11.66,11.66,0,0,0-.87,4.57v11a5.68,5.68,0,0,0,.33,2.15,2,2,0,0,0,1,1.08,4.82,4.82,0,0,0,1.93.31v1q-4.15-.19-5.54-.19t-5.93.19v-1a6.27,6.27,0,0,0,2.21-.31,2.12,2.12,0,0,0,1.18-1.08,5,5,0,0,0,.37-2.15V18.68a5.32,5.32,0,0,0-.83-3.33,3.57,3.57,0,0,0-2.93-1v-1q1.54.14,3.06.14a16.36,16.36,0,0,0,5.14-.68v5.81A9.11,9.11,0,0,1,473.63,14Z"/><path d="M510.58,36a9.66,9.66,0,0,1-3.16,2.45,9.38,9.38,0,0,1-4.23.94,11.26,11.26,0,0,1-6.09-1.6,10.26,10.26,0,0,1-3.92-4.51,15.72,15.72,0,0,1-1.35-6.69,18.56,18.56,0,0,1,1.37-7.45,11,11,0,0,1,3.89-4.86,10.29,10.29,0,0,1,5.89-1.7,8.68,8.68,0,0,1,6.83,2.69q2.4,2.69,2.4,8.16H496.8a24.73,24.73,0,0,0-.17,3.16,14,14,0,0,0,1.07,5.69A9.15,9.15,0,0,0,500.51,36a6,6,0,0,0,3.66,1.3q5,0,7.26-4.94l1,.39A9.85,9.85,0,0,1,510.58,36Zm-3.51-18a7.45,7.45,0,0,0-1.59-3.25,3.46,3.46,0,0,0-2.68-1.21,4.51,4.51,0,0,0-2.8,1,7.38,7.38,0,0,0-2.16,3,15.71,15.71,0,0,0-1.12,5h10.75A16.13,16.13,0,0,0,507.07,18Z"/></g></svg>