<svg width="96" height="96" viewBox="0 0 128 128" version="1.1" xmlns="http://www.w3.org/2000/svg" xmlns:xlink="http://www.w3.org/1999/xlink" xmlns:figma="http://www.figma.com/figma/ns">
<title>Avatar</title>
<desc>A simplified silhouette of person</desc>
<g id="Canvas" figma:type="canvas">
<mask id="mask0_alpha" mask-type="alpha">
<path d="M 0 0L 128 0L 128 128L 0 128L 0 0Z" fill="#FFFFFF"/>
</mask>
<g id="Frame" style="mix-blend-mode:normal;" mask="url(#mask0_alpha)" figma:type="frame">
<g id="Ellipse" style="mix-blend-mode:normal;" figma:type="ellipse">
<use xlink:href="#path0_fill" fill="#f7e9ba" style="mix-blend-mode:normal;"/>
</g>
<g id="Ellipse 2" style="mix-blend-mode:normal;" figma:type="ellipse">
<use xlink:href="#path1_fill" transform="translate(34 12)" fill="#f9b405" style="mix-blend-mode:normal;"/>
</g>
<g id="Intersect" style="mix-blend-mode:normal;" figma:type="vector-operation">
<use xlink:href="#path2_fill" transform="translate(10.6718 83.9761)" fill="#f9b405" style="mix-blend-mode:normal;"/>
</g>
</g>
</g>
<defs>
<path id="path0_fill" d="M 128 64C 128 99.3462 99.3462 128 64 128C 28.6538 128 0 99.3462 0 64C 0 28.6538 28.6538 0 64 0C 99.3462 0 128 28.6538 128 64Z"/>
<path id="path1_fill" d="M 60 32C 60 49.6731 46.5685 64 30 64C 13.4315 64 0 49.6731 0 32C 0 14.3269 13.4315 0 30 0C 46.5685 0 60 14.3269 60 32Z"/>
<path id="path2_fill" fill-rule="evenodd" d="M 106.656 15.4215C 95.1898 32.6619 75.5858 44.0239 53.3282 44.0239C 31.0705 44.0239 11.4666 32.6619 0 15.4215C 1.16377 11.5401 3.76151 8.27869 7.17801 6.2524C 9.79264 4.35133 19.7018 -0.376381 53.3282 0.0239335C 77.9608 0.317177 89.8665 2.67426 95.5007 4.57346C 100.84 6.01173 105.074 10.1434 106.656 15.4215Z"/>
</defs>
</svg>
