<svg width="16" height="16" viewBox="0 0 16 16" version="1.1" xmlns="http://www.w3.org/2000/svg" xmlns:xlink="http://www.w3.org/1999/xlink" xmlns:figma="http://www.figma.com/figma/ns">
<title>Copy Link</title>
<g id="Canvas" transform="translate(-108 30)" figma:type="canvas">
<mask id="link_mask0" mask-type="alpha">
<path d="M 108 -30L 124 -30L 124 -14L 108 -14L 108 -30Z" fill="#FFFFFF"/>
</mask>
<g id="Link" mask="url(#link_mask0)" figma:type="frame">
<g id="Ellipse 6" figma:type="ellipse">
<mask id="link_mask1">
<use xlink:href="#link_path0" fill="white" transform="translate(115 -30)"/>
</mask>
<g mask="url(#link_mask1)">
<use xlink:href="#link_path2x" transform="translate(115 -30)"/>
</g>
</g>
<g id="Ellipse 6" figma:type="ellipse">
<mask id="mask2_outline_ins">
<use xlink:href="#link_path0" fill="white" transform="translate(108 -23)"/>
</mask>
<g mask="url(#mask2_outline_ins)">
<use xlink:href="#link_path2x" transform="translate(108 -23)"/>
</g>
</g>
<g id="Vector 8" figma:type="vector">
<use xlink:href="#link_path2" transform="translate(113.5 -24.5)"/>
</g>
</g>
</g>
<defs>
<path id="link_path0" d="M 9 4.5C 9 6.98528 6.98528 9 4.5 9C 2.01472 9 0 6.98528 0 4.5C 0 2.01472 2.01472 0 4.5 0C 6.98528 0 9 2.01472 9 4.5Z"/>
<path id="link_path2x" d="M 7 4.5C 7 5.88071 5.88071 7 4.5 7L 4.5 11C 8.08985 11 11 8.08985 11 4.5L 7 4.5ZM 4.5 7C 3.11929 7 2 5.88071 2 4.5L -2 4.5C -2 8.08985 0.910149 11 4.5 11L 4.5 7ZM 2 4.5C 2 3.11929 3.11929 2 4.5 2L 4.5 -2C 0.910149 -2 -2 0.910149 -2 4.5L 2 4.5ZM 4.5 2C 5.88071 2 7 3.11929 7 4.5L 11 4.5C 11 0.910149 8.08985 -2 4.5 -2L 4.5 2Z"/>
<path id="link_path2" d="M -0.707107 4.29289C -1.09763 4.68342 -1.09763 5.31658 -0.707107 5.70711C -0.316582 6.09763 0.316582 6.09763 0.707107 5.70711L -0.707107 4.29289ZM 5.70711 0.707107C 6.09763 0.316582 6.09763 -0.316582 5.70711 -0.707107C 5.31658 -1.09763 4.68342 -1.09763 4.29289 -0.707107L 5.70711 0.707107ZM 0.707107 5.70711L 5.70711 0.707107L 4.29289 -0.707107L -0.707107 4.29289L 0.707107 5.70711Z"/>
</defs>
</svg>
