<svg width="16" height="16" viewBox="0 0 16 16" version="1.1" xmlns="http://www.w3.org/2000/svg" xmlns:xlink="http://www.w3.org/1999/xlink" xmlns:figma="http://www.figma.com/figma/ns">
<title>Subscribe</title>
<g id="Canvas" transform="translate(-48 31)" figma:type="canvas">
<mask id="mask0_alpha" mask-type="alpha">
<path d="M 48 -31L 64 -31L 64 -15L 48 -15L 48 -31Z" fill="#FFFFFF"/>
</mask>
<g id="Subscribe" mask="url(#mask0_alpha)" figma:type="frame">
<g id="Vector 4" figma:type="vector">
<mask id="subscribe_mask0_outline">
<rect id="mask1_outline_inv" fill="white" x="-2" y="-2" width="16" height="16" transform="translate(50 -29)"/>
<use xlink:href="#subscribe_stroke0" fill="black" transform="translate(50 -29)"/>
</mask>
<g mask="url(#subscribe_mask0_outline)">
<use xlink:href="#subscribe_stroke2x" transform="translate(50 -29)"/>
</g>
</g>
</g>
</g>
<defs>
<path id="subscribe_stroke0" d="M 0 0.995846L 0 11.5C 0 13.5 4 8.5 6 8.5C 8 8.5 12 13.5 12 11.5L 12 0.995846C 12 0.443561 11.5523 0 11 0L 1 0C 0.447715 0 0 0.443561 0 0.995846Z"/>
<path id="subscribe_stroke2x" d="M 2 11.5L 2 0.995846L -2 0.995846L -2 11.5L 2 11.5ZM 1 2L 11 2L 11 -2L 1 -2L 1 2ZM 10 0.995846L 10 11.5L 14 11.5L 14 0.995846L 10 0.995846ZM 10 11.5C 10 11.4841 9.99827 11.2974 10.1019 11.0425C 10.2225 10.746 10.4854 10.3708 10.9547 10.1442C 11.3835 9.93722 11.761 9.96372 11.929 9.9902C 11.8774 9.97987 12.1453 10.0426 12.1218 10.0361C 12.1092 10.0309 12.1753 10.0554 12.1819 10.0591C 12.2595 10.0895 12.0278 9.97435 11.8025 9.81019C 11.5661 9.6394 11.3068 9.43424 10.9994 9.18826C 10.383 8.69515 9.62686 8.07957 8.89065 7.5859C 8.24429 7.15499 7.16522 6.5 6 6.5L 6 10.5C 5.83478 10.5 6.00571 10.47 6.67185 10.9141C 7.24814 11.2954 7.86705 11.8048 8.50061 12.3117C 9.05138 12.7523 9.82749 13.3779 10.5056 13.6909C 10.7349 13.7967 11.6823 14.2347 12.6937 13.7464C 13.9214 13.1537 14 11.8956 14 11.5L 10 11.5ZM 6 6.5C 4.83478 6.5 3.75571 7.15499 3.10935 7.5859C 2.37314 8.07957 1.61705 8.69515 1.00061 9.18826C 0.693154 9.43424 0.433949 9.6394 0.197543 9.81019C -0.0277528 9.97435 -0.259544 10.0895 -0.181866 10.0591C -0.175293 10.0554 -0.109176 10.0309 -0.121802 10.0361C -0.145269 10.0426 0.122569 9.97987 0.0710139 9.9902C 0.239027 9.96372 0.616512 9.93722 1.04528 10.1442C 1.5146 10.3708 1.77752 10.746 1.89807 11.0425C 2.00173 11.2974 2 11.4841 2 11.5L -2 11.5C -2 11.8956 -1.92144 13.1537 -0.693717 13.7464C 0.317687 14.2347 1.26512 13.7967 1.49437 13.6909C 2.17251 13.3779 2.94862 12.7523 3.49939 12.3117C 4.13295 11.8048 4.75186 11.2954 5.32815 10.9141C 5.99429 10.47 6.16522 10.5 6 10.5L 6 6.5ZM 2 0.995846C 2 1.55897 1.54142 2 1 2L 1 -2C -0.645985 -2 -2 -0.671846 -2 0.995846L 2 0.995846ZM 11 2C 10.4586 2 10 1.55897 10 0.995846L 14 0.995846C 14 -0.671846 12.646 -2 11 -2L 11 2Z"/>
</defs>
</svg>
