<svg id="Social" xmlns="http://www.w3.org/2000/svg" viewBox="0 0 128 128"><title>Twitter</title><path id="Twitter" d="M40.12,115.65c48.28,0,74.69-40,74.69-74.69,0-1.14,0-2.27-.08-3.39A53.41,53.41,0,0,0,127.82,24a52.39,52.39,0,0,1-15.08,4.13A26.34,26.34,0,0,0,124.28,13.6,52.6,52.6,0,0,1,107.62,20,26.27,26.27,0,0,0,62.88,43.91,74.52,74.52,0,0,1,8.79,16.48a26.27,26.27,0,0,0,8.13,35A26.05,26.05,0,0,1,5,48.24v.33A26.26,26.26,0,0,0,26.06,74.3a26.21,26.21,0,0,1-11.85.45A26.28,26.28,0,0,0,38.73,93a52.67,52.67,0,0,1-32.6,11.26,53.43,53.43,0,0,1-6.25-.38,74.31,74.31,0,0,0,40.23,11.77"/></svg>