<svg id="Social" xmlns="http://www.w3.org/2000/svg" viewBox="0 0 128 128"><title>Instagram</title><g id="Instagram"><path d="M0,85.08V42.92a8.49,8.49,0,0,0,.2-1.2A68.35,68.35,0,0,1,1.79,27C4.52,16.11,10.84,8.18,21.24,3.68,26.87,1.25,32.86.54,38.93.29c1.33-.05,2.66-.19,4-.29H85.08a8.49,8.49,0,0,0,1.2.2A68.35,68.35,0,0,1,101,1.79c10.9,2.74,18.83,9.06,23.32,19.45,2.44,5.64,3.14,11.63,3.39,17.7.05,1.33.19,2.66.29,4V85.08a8.48,8.48,0,0,0-.2,1.2A68.32,68.32,0,0,1,126.21,101c-2.73,10.9-9.06,18.83-19.45,23.32-5.64,2.44-11.63,3.14-17.7,3.39-1.33.05-2.66.19-4,.29H42.92a8.48,8.48,0,0,0-1.2-.2A68.33,68.33,0,0,1,27,126.21c-10.9-2.73-18.83-9.06-23.32-19.45C1.25,101.13.54,95.14.29,89.07.23,87.74.1,86.41,0,85.08ZM11.7,64h.2c0,5.33-.1,10.66,0,16,.13,5,.31,10.06.82,15.06a22.76,22.76,0,0,0,5.48,13c4.51,5.14,10.43,7.31,17,7.71,7.55.46,15.13.57,22.69.66s14.9.06,22.34-.09c5-.1,10.06-.31,15.06-.82a22.75,22.75,0,0,0,13-5.48c5.14-4.51,7.31-10.43,7.71-17,.46-7.55.57-15.13.66-22.69s.06-14.9-.09-22.34c-.1-5-.31-10.06-.82-15.06a22.76,22.76,0,0,0-5.48-13c-4.51-5.14-10.43-7.31-17-7.71-8.18-.5-16.39-.59-24.59-.69q-10.47-.13-20.95.13a124.58,124.58,0,0,0-16,1.09c-9.3,1.46-15.61,6.84-18.11,16.07a42.15,42.15,0,0,0-1.36,9.38C11.92,46.83,11.86,55.42,11.7,64Z"/><path d="M64.31,31.36A32.89,32.89,0,1,1,31.36,64.13,32.87,32.87,0,0,1,64.31,31.36Zm0,11.6A21.29,21.29,0,1,0,85.54,64.32,21.33,21.33,0,0,0,64.29,43Z"/><path d="M106.12,30.13a7.72,7.72,0,1,1-7.71-7.74A7.73,7.73,0,0,1,106.12,30.13Z"/></g></svg>